<svg width="16" height="16" viewBox="0 0 16 16" fill="none" xmlns="http://www.w3.org/2000/svg">
<g clip-path="url(#clip0_110_105)">
<path d="M8.00049 3.2002C5.86711 3.2002 4.53424 4.26645 4.00049 6.39982C4.80024 5.33345 5.73386 4.93357 6.80024 5.2002C7.40911 5.35195 7.84424 5.79345 8.32611 6.2827C9.11036 7.07857 10.0181 7.99995 12.0005 7.99995C14.1337 7.99995 15.4667 6.93357 16.0005 4.7997C15.2005 5.86661 14.2672 6.2667 13.2006 5.99995C12.5919 5.84807 12.1572 5.4067 11.6747 4.91745C10.891 4.12157 9.98349 3.2002 8.00049 3.2002ZM4.00049 7.99995C1.86724 7.99995 0.534238 9.06632 0.000488281 11.2002C0.800405 10.1333 1.73366 9.7332 2.80024 9.99995C3.40911 10.1518 3.84424 10.5932 4.32611 11.0824C5.11036 11.8783 6.01811 12.7997 8.00049 12.7997C10.1337 12.7997 11.4667 11.7334 12.0005 9.60007C11.2005 10.6665 10.2672 11.0664 9.20061 10.7997C8.59186 10.6479 8.15724 10.2064 7.67474 9.7172C6.89099 8.92132 5.98349 7.99995 4.00049 7.99995Z" fill="#38BDF8"/>
</g>
<defs>
<clipPath id="clip0_110_105">
<rect width="16" height="16" fill="white"/>
</clipPath>
</defs>
</svg>
