<svg width="91" height="91" viewBox="0 0 91 91" fill="none" xmlns="http://www.w3.org/2000/svg">
<g clip-path="url(#clip0_99_105)">
<path d="M88.6801 41.5031L49.4961 2.3205C47.241 0.0639842 43.5811 0.0639842 41.3225 2.3205L33.1865 10.4579L43.5079 20.7793C45.9073 19.9695 48.6572 20.5127 50.5689 22.4244C52.4906 24.3482 53.0295 27.1215 52.1998 29.5288L62.1473 39.4769C64.5538 38.6473 67.3314 39.1833 69.2524 41.1085C71.9397 43.7937 71.9397 48.1468 69.2524 50.8334C68.6137 51.4724 67.8555 51.9792 67.0209 52.325C66.1864 52.6708 65.2918 52.8488 64.3885 52.8488C63.4851 52.8488 62.5906 52.6708 61.756 52.325C60.9215 51.9792 60.1632 51.4724 59.5246 50.8334C58.5654 49.8732 57.9115 48.6508 57.6452 47.3199C57.3789 45.989 57.5121 44.609 58.0281 43.3537L48.7518 34.0774L48.7503 58.4916C49.4234 58.823 50.0379 59.262 50.5696 59.7912C53.2556 62.4764 53.2556 66.8281 50.5696 69.519C47.883 72.2042 43.5285 72.2042 40.8447 69.519C38.1588 66.8288 38.1588 62.4772 40.8447 59.7912C41.4888 59.1475 42.2541 58.6376 43.0963 58.2912V33.6508C42.2531 33.3058 41.4876 32.7955 40.8447 32.15C38.81 30.1167 38.3202 27.1308 39.3638 24.6311L29.1882 14.4555L2.32045 41.3218C1.23649 42.4061 0.627563 43.8765 0.627563 45.4097C0.627563 46.9429 1.23649 48.4133 2.32045 49.4976L41.5052 88.6802C43.7617 90.9367 47.4202 90.9367 49.6803 88.6802L88.6809 49.6796C89.7646 48.595 90.3733 47.1244 90.3732 45.5912C90.373 44.0579 89.7641 42.5875 88.6801 41.5031Z" fill="#F34F29"/>
</g>
<defs>
<clipPath id="clip0_99_105">
<rect width="91" height="91" fill="white"/>
</clipPath>
</defs>
</svg>
