<svg width="31" height="31" viewBox="0 0 31 31" fill="none" xmlns="http://www.w3.org/2000/svg">
<path d="M6.91946 20.6666V7.47356C6.91946 6.91298 7.36896 6.45831 7.92438 6.45831H23.9979C24.5533 6.45831 25.0028 6.91298 25.0028 7.47356V20.6666M6.91946 20.6666H5.62779C5.28522 20.6666 4.95668 20.8027 4.71445 21.045C4.47221 21.2872 4.33613 21.6157 4.33613 21.9583V23.25C4.33613 23.5926 4.47221 23.9211 4.71445 24.1633C4.95668 24.4056 5.28522 24.5416 5.62779 24.5416H26.2945C26.637 24.5416 26.9656 24.4056 27.2078 24.1633C27.45 23.9211 27.5861 23.5926 27.5861 23.25V21.9583C27.5861 21.6157 27.45 21.2872 27.2078 21.045C26.9656 20.8027 26.637 20.6666 26.2945 20.6666H25.0028M6.91946 20.6666H25.0028M12.0861 10.3333L15.4768 13.5625L12.0861 16.7916M17.2528 16.7916H19.8361" stroke="black" stroke-width="2" stroke-linecap="round" stroke-linejoin="round"/>
</svg>
