<svg width="33" height="33" viewBox="0 0 33 33" fill="none" xmlns="http://www.w3.org/2000/svg">
<path d="M1.91101 7.59839V25.4016H9.94316V7.59839H1.91101ZM7.74724 23.9153C7.60702 23.9153 7.46994 23.8738 7.35335 23.7959C7.23676 23.718 7.14589 23.6072 7.09222 23.4777C7.03856 23.3481 7.02452 23.2056 7.05188 23.068C7.07924 22.9305 7.14676 22.8042 7.24591 22.705C7.34507 22.6059 7.4714 22.5384 7.60893 22.511C7.74645 22.4836 7.88901 22.4977 8.01856 22.5513C8.14811 22.605 8.25884 22.6959 8.33674 22.8125C8.41464 22.9291 8.45623 23.0661 8.45623 23.2064C8.45623 23.3944 8.38153 23.5747 8.24857 23.7077C8.11561 23.8406 7.93528 23.9153 7.74724 23.9153ZM8.9074 11.7234H2.93646V10.6921H8.90675V11.7234H8.9074ZM8.9074 9.66089H2.93646V8.62964H8.90675V9.66089H8.9074ZM18.7687 21.8109H23.4802V24.3704H26.1705V25.4016H16.0797V24.3704H18.77V21.8109H18.7687ZM11.1633 7.59839V20.7797H31.0889V7.59839H11.1626H11.1633ZM30.0577 19.7484H12.1939V8.62964H30.0577V19.7484Z" fill="black"/>
</svg>
