<svg width="24" height="24" viewBox="0 0 24 24" fill="none" xmlns="http://www.w3.org/2000/svg">
<g clip-path="url(#clip0_223_123)">
<path d="M3.71738 12.2484C3.44551 12.2484 3.19238 12.075 3.10801 11.8031C2.41894 9.65152 2.32051 5.84995 3.79707 4.12495C3.46894 2.87808 3.65176 1.19058 4.25642 0.285892C4.38298 0.0983921 4.58923 -0.00942043 4.81892 -4.54282e-05C6.53923 0.074978 7.65955 0.792142 8.64392 1.44839C10.0455 1.08279 11.4095 0.956205 13.0267 1.04527C13.4252 1.0687 13.8189 1.15777 14.1658 1.23745C14.4939 1.31245 14.8314 1.39217 15.0283 1.37342C15.2064 1.35467 15.5252 1.13904 15.783 0.960916C16.022 0.796853 16.2752 0.628103 16.5377 0.510916C17.2877 0.182791 17.9627 0.0327905 18.872 -2.19907e-05C19.2236 -0.00939699 19.5236 0.262455 19.5376 0.618728C19.5517 0.975001 19.2751 1.27027 18.9189 1.27967C18.1642 1.30779 17.658 1.4156 17.0533 1.68279C16.8986 1.7531 16.7064 1.87967 16.5048 2.02029C16.1064 2.29217 15.6517 2.60154 15.1455 2.64842C14.7376 2.68592 14.3158 2.59217 13.8705 2.48435C13.5611 2.41404 13.2376 2.33904 12.9517 2.32029C11.372 2.23123 10.0595 2.36717 8.70015 2.75623C8.52202 2.80779 8.32983 2.77967 8.17046 2.67185L8.01108 2.56404C7.15327 1.99688 6.34238 1.45313 5.15644 1.30781C4.86113 2.0625 4.82365 3.31406 5.11894 4.05469C5.22209 4.30781 5.14709 4.6031 4.94084 4.77656C3.78303 5.76094 3.63772 9.24375 4.32678 11.4047C4.43459 11.7422 4.24709 12.1031 3.90959 12.2109C3.84397 12.2391 3.77832 12.2484 3.71738 12.2484ZM8.59236 18.5765C8.54547 18.5765 8.49858 18.5718 8.45169 18.5625C8.10481 18.4875 7.88919 18.1453 7.96419 17.7984L8.00637 17.6156C8.20325 16.725 8.38606 16.0078 8.60169 15.4734C5.972 14.925 4.05481 13.6734 3.14544 11.9015C2.98606 11.5875 3.10794 11.1984 3.42202 11.039C3.73611 10.8796 4.12515 11.0015 4.28452 11.3156C5.10483 12.9141 7.03608 13.9969 9.72671 14.3672C9.98452 14.4047 10.1955 14.5922 10.2611 14.8406C10.3267 15.0937 10.233 15.3609 10.022 15.5156C9.88608 15.6375 9.63765 16.1484 9.25796 17.8875L9.21577 18.075C9.15015 18.3703 8.88765 18.5765 8.59233 18.5765H8.59236ZM7.41104 23.2687C7.36885 23.2687 7.33135 23.264 7.28916 23.2546C6.94229 23.1843 6.7126 22.8609 6.78291 22.514C6.9001 21.9187 7.31729 21.6703 7.56573 21.525C7.73448 21.4265 7.78604 21.389 7.81416 21.3234C7.95948 21.014 7.92198 20.2125 7.88916 19.5703C7.8751 19.2984 7.86106 19.0218 7.85637 18.7546C6.37044 19.0125 4.75794 19.0921 3.90479 17.6812C3.73604 17.4 3.62823 17.114 3.52979 16.8562C3.41729 16.5656 3.32354 16.3125 3.16885 16.125C2.94387 15.8531 2.98604 15.45 3.25791 15.225C3.52979 15 3.93291 15.0375 4.15791 15.314C4.44385 15.6656 4.59385 16.0593 4.7251 16.4062C4.80948 16.6312 4.88916 16.8421 4.99698 17.0203C5.45635 17.7796 6.45945 17.7328 8.39073 17.3437C8.59229 17.3015 8.79851 17.3625 8.94854 17.4984C9.09854 17.639 9.17354 17.8406 9.1501 18.0421C9.10323 18.4499 9.13135 18.9843 9.15479 19.4999C9.20166 20.4046 9.24385 21.2577 8.95791 21.8624C8.75166 22.2984 8.41885 22.4952 8.19854 22.6218C8.1376 22.6593 8.04385 22.7109 8.0251 22.7343C7.98291 23.0484 7.71573 23.2687 7.41104 23.2687ZM16.7298 23.1468C16.5188 23.1468 16.3173 23.0438 16.1907 22.8563C16.1391 22.7719 16.0641 22.7203 15.9329 22.6313C15.7266 22.486 15.4454 22.2891 15.2345 21.8813C14.8548 21.136 14.9157 20.0532 14.9766 18.9094C15.0141 18.2063 15.0516 17.4797 14.9766 16.9078C14.911 16.425 14.7422 16.2094 14.5078 15.9094C14.3578 15.7125 14.1844 15.4922 14.0485 15.2015C13.9594 15.0094 13.9735 14.789 14.0766 14.6062C14.1844 14.4234 14.3719 14.3062 14.5828 14.2922C16.9875 14.114 18.886 12.9797 19.8 11.1844C19.9594 10.8703 20.3438 10.7437 20.6625 10.9031C20.9766 11.0625 21.1032 11.4469 20.9438 11.7656C19.9688 13.6922 18.1078 14.9906 15.7547 15.4359C15.9657 15.7453 16.1719 16.139 16.2516 16.7437C16.3453 17.4328 16.3032 18.2203 16.261 18.9797C16.2141 19.8609 16.1625 20.8594 16.3829 21.3C16.4391 21.4125 16.5094 21.464 16.6688 21.5765C16.8422 21.6937 17.0766 21.8578 17.2688 22.1531C17.461 22.4484 17.3766 22.8468 17.0814 23.039C16.9735 23.114 16.8517 23.1468 16.7298 23.1468H16.7298ZM20.372 12.1172C20.3157 12.1172 20.2547 12.1079 20.1985 12.0938C19.8563 11.9954 19.6594 11.6438 19.7578 11.3016C20.4657 8.81257 19.9828 5.5782 18.7453 4.52351C18.5438 4.35007 18.4688 4.07351 18.5578 3.82507C18.8578 2.96726 18.6563 1.6782 18.3141 0.900072C18.1735 0.576634 18.3188 0.196947 18.6422 0.0563218C18.9657 -0.0843032 19.3454 0.0610093 19.486 0.384447C19.8797 1.27507 20.1376 2.67663 19.8797 3.84382C21.4079 5.53132 21.7079 9.13132 20.9907 11.6532C20.9063 11.9344 20.6532 12.1173 20.372 12.1172ZM14.6157 24.0094C14.4985 24.0094 14.3766 23.9766 14.2688 23.9063C14.1516 23.8313 13.8001 23.6063 13.1485 22.5938C12.8532 22.1344 12.6376 19.8469 12.5063 15.7876C12.497 15.436 12.7735 15.136 13.1251 15.1266C13.4766 15.1172 13.7766 15.3938 13.786 15.7454C13.8704 18.4032 14.0673 21.4173 14.2454 21.9329C14.7235 22.6735 14.9485 22.8235 14.9579 22.8282C15.2532 23.0204 15.3422 23.4141 15.1501 23.7141C15.0329 23.9063 14.8266 24.0094 14.6157 24.0094ZM9.75472 24.0094C9.54378 24.0094 9.33753 23.9063 9.21566 23.7141C9.02347 23.4188 9.11253 23.0204 9.40784 22.8282C9.41722 22.8235 9.64222 22.6735 10.1203 21.9329C10.2985 21.4219 10.4907 18.4032 10.5797 15.7454C10.5891 15.3938 10.8891 15.1126 11.2407 15.1266C11.5922 15.136 11.8735 15.436 11.8594 15.7876C11.7282 19.8469 11.5125 22.1391 11.2172 22.5938C10.5657 23.6016 10.2141 23.8313 10.0969 23.9063C9.99378 23.9766 9.87191 24.0094 9.75472 24.0094Z" fill="white"/>
</g>
<defs>
<clipPath id="clip0_223_123">
<rect width="24" height="24" fill="white"/>
</clipPath>
</defs>
</svg>
