<svg width="31" height="31" viewBox="0 0 31 31" fill="none" xmlns="http://www.w3.org/2000/svg">
<path fill-rule="evenodd" clip-rule="evenodd" d="M15.4354 3.22913H15.5646C16.7271 3.22913 17.6958 3.22913 18.4579 3.33246C19.2717 3.43579 19.995 3.68121 20.5892 4.27538C21.1833 4.85663 21.4158 5.59288 21.5321 6.40663C21.6096 6.96204 21.6225 7.63371 21.6354 8.40871C22.4233 8.42163 23.1079 8.44746 23.715 8.51204C24.8646 8.62829 25.8204 8.87371 26.66 9.42913C27.3317 9.88121 27.9 10.4495 28.3521 11.1212C28.9075 11.9608 29.1529 12.9166 29.2692 14.0662C29.3854 15.177 29.3854 16.585 29.3854 18.3545V18.4579C29.3854 20.2275 29.3854 21.6354 29.2692 22.7462C29.1529 23.8958 28.9075 24.8516 28.3521 25.6912C27.9 26.3629 27.3317 26.9312 26.66 27.3833C25.8204 27.9387 24.8646 28.1841 23.715 28.3004C22.5913 28.4166 21.1963 28.4166 19.4267 28.4166H11.5733C9.80375 28.4166 8.40875 28.4166 7.285 28.3004C6.13542 28.1841 5.17959 27.9387 4.34 27.3833C3.66834 26.9312 3.1 26.3629 2.64792 25.6912C2.0925 24.8516 1.84709 23.8958 1.73084 22.7462C1.61459 21.6354 1.61459 20.2275 1.61459 18.4579V18.3545C1.61459 16.585 1.61459 15.177 1.73084 14.0662C1.84709 12.9166 2.0925 11.9608 2.64792 11.1212C3.1 10.4495 3.66834 9.88121 4.34 9.42913C5.17959 8.87371 6.13542 8.62829 7.285 8.51204C7.89209 8.44746 8.57667 8.42163 9.36459 8.40871C9.36459 7.63371 9.39042 6.96204 9.46792 6.40663C9.57125 5.59288 9.81667 4.85663 10.4108 4.27538C11.005 3.68121 11.7283 3.43579 12.5421 3.33246C13.3042 3.22913 14.2729 3.22913 15.4354 3.22913ZM19.6075 6.66496C19.6721 7.10413 19.685 7.65954 19.685 8.39579H11.2892C11.2892 7.65954 11.315 7.10413 11.3667 6.66496C11.4442 6.05788 11.5863 5.81246 11.7542 5.64454C11.9221 5.47663 12.1804 5.33454 12.7746 5.25704C13.3946 5.16663 14.2342 5.16663 15.4742 5.16663C16.7142 5.16663 17.5538 5.16663 18.1738 5.25704C18.7679 5.33454 19.0263 5.47663 19.1942 5.64454C19.3621 5.81246 19.5042 6.05788 19.5817 6.66496H19.6075ZM7.47875 10.4366C6.48417 10.54 5.89 10.7337 5.41209 11.0437C4.96 11.3408 4.55959 11.7412 4.24959 12.1933C3.93959 12.6712 3.74584 13.2654 3.6425 14.26C3.53917 15.2675 3.53917 16.572 3.53917 18.4062C3.53917 20.2404 3.53917 21.545 3.6425 22.5525C3.74584 23.547 3.93959 24.1412 4.24959 24.6191C4.55959 25.0712 4.94709 25.4716 5.41209 25.7687C5.87709 26.0787 6.48417 26.2725 7.47875 26.3758C8.48625 26.4791 9.79084 26.4791 11.625 26.4791H19.375C21.2092 26.4791 22.5138 26.4791 23.5213 26.3758C24.5158 26.2725 25.11 26.0787 25.5879 25.7687C26.04 25.4716 26.4404 25.0712 26.7504 24.6191C27.0604 24.1412 27.2542 23.547 27.3575 22.5525C27.4608 21.545 27.4608 20.2404 27.4608 18.4062C27.4608 16.572 27.4608 15.2675 27.3575 14.26C27.2542 13.2654 27.0604 12.6712 26.7504 12.1933C26.4404 11.7412 26.0529 11.3408 25.5879 11.0437C25.1229 10.7337 24.5158 10.54 23.5213 10.4366C22.5138 10.3333 21.2092 10.3333 19.375 10.3333H11.625C9.79084 10.3333 8.48625 10.3333 7.47875 10.4366ZM8.03417 13.6012C7.91205 13.5634 7.78366 13.5501 7.65638 13.5621C7.52911 13.5742 7.40547 13.6113 7.29261 13.6713C7.17974 13.7313 7.07987 13.8131 6.99876 13.9119C6.91764 14.0107 6.85689 14.1246 6.82 14.247C6.665 14.7508 6.94917 15.2933 7.45292 15.4612L8.2925 15.7195C10.2946 16.3395 12.4 16.6883 14.5183 16.7787V18.4062C14.5183 18.9358 14.9575 19.375 15.4871 19.375C16.0167 19.375 16.4558 18.9358 16.4558 18.4062V16.7787C18.5742 16.6883 20.6796 16.3395 22.6817 15.7195L23.5213 15.4612C24.0379 15.2933 24.3221 14.7508 24.1542 14.247C24.1173 14.1246 24.0565 14.0107 23.9754 13.9119C23.8943 13.8131 23.7944 13.7313 23.6816 13.6713C23.5687 13.6113 23.4451 13.5742 23.3178 13.5621C23.1905 13.5501 23.0621 13.5634 22.94 13.6012L22.1004 13.8725C17.7838 15.1783 13.1774 15.1783 8.86084 13.8725L8.02125 13.6012H8.03417Z" fill="black"/>
</svg>
