<svg width="24" height="24" viewBox="0 0 24 24" fill="none" xmlns="http://www.w3.org/2000/svg">
<path d="M3 5V4.25C2.80109 4.25 2.61032 4.32902 2.46967 4.46967C2.32902 4.61032 2.25 4.80109 2.25 5H3ZM21 5H21.75C21.75 4.80109 21.671 4.61032 21.5303 4.46967C21.3897 4.32902 21.1989 4.25 21 4.25V5ZM3 5.75H21V4.25H3V5.75ZM20.25 5V17H21.75V5H20.25ZM19 18.25H5V19.75H19V18.25ZM3.75 17V5H2.25V17H3.75ZM5 18.25C4.31 18.25 3.75 17.69 3.75 17H2.25C2.25 17.7293 2.53973 18.4288 3.05546 18.9445C3.57118 19.4603 4.27065 19.75 5 19.75V18.25ZM20.25 17C20.25 17.69 19.69 18.25 19 18.25V19.75C19.7293 19.75 20.4288 19.4603 20.9445 18.9445C21.4603 18.4288 21.75 17.7293 21.75 17H20.25Z" fill="black"/>
<path d="M3 5L12 14L21 5" stroke="black" stroke-width="1.5" stroke-linecap="round" stroke-linejoin="round"/>
</svg>
