<svg width="77" height="81" viewBox="0 0 77 81" fill="none" xmlns="http://www.w3.org/2000/svg">
<g clip-path="url(#clip0_101_118)">
<path d="M69.2207 0H13.7793C6.1692 0 0 6.16504 0 13.77V67.1004C0 74.7054 6.1692 80.8704 13.7793 80.8704H69.2207C76.8308 80.8704 83 74.7054 83 67.1004V13.77C83 6.16504 76.8308 0 69.2207 0Z" fill="#001E36"/>
<path d="M18.6892 56.7113V21.1562C18.6892 20.8968 18.8006 20.767 19.0235 20.7668L19.3759 20.7658L19.9783 20.7593L20.8154 20.7428L23.6199 20.6835L26.6271 20.6278C27.6847 20.6094 28.7332 20.6001 29.7726 20.5999C32.5933 20.5999 34.969 20.9523 36.8996 21.6571C38.6414 22.2454 40.2298 23.2149 41.5489 24.4947C42.6674 25.6039 43.5317 26.9423 44.0823 28.4177C44.603 29.8535 44.8669 31.3696 44.8621 32.8967C44.8621 35.8647 44.1753 38.313 42.8017 40.2414C41.4584 42.1228 39.5847 43.5617 37.4197 44.3744L37.2339 44.4424C34.9731 45.2852 32.4695 45.5897 29.7237 45.6088L29.297 45.6101L28.6638 45.6069L28.3444 45.6023L27.9885 45.5939L27.7738 45.5855L27.6435 45.5787L27.3228 45.567L26.9309 45.5589L26.3408 45.5547L26.2095 45.5544V56.6556C26.2192 56.7237 26.213 56.793 26.1912 56.8583C26.1695 56.9235 26.1329 56.9827 26.0842 57.0314C26.0356 57.08 25.9763 57.1166 25.911 57.1383C25.8457 57.16 25.7763 57.1663 25.7082 57.1565H19.0792C18.819 57.1567 18.689 57.0083 18.6892 56.7113ZM26.2098 27.4438V39.0404C26.6918 39.0777 27.1371 39.0963 27.5456 39.0961H29.3832C30.6502 39.0917 31.9098 38.9033 33.1225 38.5366L33.3643 38.4611C34.4676 38.1339 35.4534 37.4964 36.2042 36.6246C36.9019 35.8023 37.2633 34.6692 37.2883 33.2252L37.29 33.0635C37.3191 31.9872 37.039 30.9251 36.4823 30.0034C35.8975 29.1117 35.0518 28.4219 34.0604 28.0279C32.7662 27.525 31.3836 27.2885 29.9957 27.3326L29.2895 27.3346L28.8441 27.3385L28.419 27.344L27.8192 27.3556L27.3815 27.368L27.1542 27.3764L26.8504 27.3906L26.5917 27.4065L26.4442 27.4182L26.3168 27.4305L26.2607 27.437L26.2098 27.4438ZM66.3902 36.9318C65.4189 36.4331 64.3886 36.0585 63.3238 35.8166L63.0774 35.7634C61.9058 35.4949 60.7098 35.3469 59.508 35.3218L59.2078 35.3183C58.5033 35.2991 57.7998 35.3835 57.1198 35.5687C56.6871 35.6653 56.3024 35.9115 56.0337 36.264C55.8521 36.5462 55.7556 36.8746 55.7555 37.2101C55.7657 37.5354 55.8831 37.8483 56.0895 38.1001C56.385 38.4454 56.7403 38.7348 57.1383 38.9545L57.2589 39.0183C58.0528 39.4455 58.8708 39.8263 59.7087 40.1588C61.5772 40.7843 63.3627 41.6345 65.0259 42.6906C66.159 43.4052 67.0966 44.3899 67.7545 45.5563C68.3074 46.6607 68.5844 47.8824 68.5618 49.1171C68.5949 50.7477 68.1286 52.3494 67.2254 53.7079C66.2584 55.0866 64.9151 56.1584 63.3555 56.7956C61.7223 57.5127 59.7168 57.8834 57.339 57.9075L57.0919 57.9088C55.6179 57.9235 54.1459 57.7946 52.6968 57.5239L52.3869 57.4637C51.1669 57.2401 49.9793 56.8662 48.8513 56.3507C48.7378 56.2923 48.642 56.2049 48.5735 56.0973C48.505 55.9897 48.4664 55.8658 48.4616 55.7384V49.6737C48.4549 49.6149 48.4643 49.5553 48.4889 49.5014C48.5134 49.4474 48.5522 49.4012 48.601 49.3676C48.6487 49.3404 48.7037 49.3285 48.7584 49.3335C48.8131 49.3385 48.865 49.3601 48.907 49.3954C50.2392 50.1803 51.6856 50.7529 53.1942 51.0925C54.524 51.4258 55.8881 51.6032 57.2589 51.6213C58.5577 51.6213 59.5135 51.4543 60.1263 51.1204C60.4029 50.9937 60.6368 50.7896 60.7999 50.5329C60.9629 50.2762 61.0481 49.9778 61.0451 49.6737C61.0451 49.192 60.7668 48.7284 60.21 48.2828C59.9765 48.0962 59.6418 47.8931 59.2059 47.6737L58.9974 47.5713L58.775 47.4666L58.6582 47.4135L58.4138 47.3053L58.2864 47.2502L58.0205 47.1388L57.8821 47.0821L57.5948 46.967L57.4457 46.9087L57.1367 46.7898L56.8134 46.669C55.0649 46.0613 53.4071 45.219 51.8856 44.1651C50.7972 43.4087 49.9011 42.4083 49.2689 41.2439C48.7215 40.1474 48.4447 38.9359 48.4616 37.7107C48.4581 36.2384 48.8628 34.794 49.6307 33.5376C50.5061 32.1541 51.7628 31.0525 53.25 30.3662C54.8829 29.5506 56.9244 29.1425 59.3744 29.1419C60.8095 29.1303 62.2431 29.2327 63.6619 29.448C64.6892 29.5784 65.6937 29.8499 66.6467 30.2548C66.8 30.2989 66.9236 30.4119 66.9806 30.561C67.0186 30.6967 67.037 30.837 67.0364 30.9783V36.5981C67.0445 36.7309 66.9806 36.8582 66.8694 36.9318C66.795 36.9688 66.713 36.988 66.6298 36.988C66.5467 36.988 66.4647 36.9688 66.3902 36.9318Z" fill="#31A8FF"/>
</g>
<defs>
<clipPath id="clip0_101_118">
<rect width="83" height="81" fill="white"/>
</clipPath>
</defs>
</svg>
