<svg width="67" height="87" viewBox="0 0 67 87" fill="none" xmlns="http://www.w3.org/2000/svg">
<g clip-path="url(#clip0_110_107)">
<path d="M28.8033 42.674C34.5849 37.1419 32.8206 30.3 27.5844 22.0088C22.348 13.7178 11.8073 10.7681 9.84079 12.6497C7.87432 14.5312 7.43875 27.9837 12.675 36.2749C17.9114 44.5659 23.0215 48.2063 28.8033 42.674Z" fill="url(#paint0_linear_110_107)"/>
<path d="M33.8026 43.4397C38.0798 50.2125 43.7981 47.736 50.8762 40.9635C57.9541 34.1908 60.8892 21.2176 59.4344 18.9143C57.9796 16.6109 46.9241 16.7262 39.8462 23.4989C32.7683 30.2715 29.5253 36.6672 33.8026 43.4397Z" fill="url(#paint1_linear_110_107)"/>
<path d="M31.4636 39.7139C38.5659 40.5897 41.359 34.0002 42.6612 23.3487C43.9635 12.6972 38.5951 1.43901 36.1796 1.14115C33.764 0.84328 25.6486 10.4386 24.3463 21.0903C23.044 31.7418 24.3613 38.8381 31.4636 39.7139Z" fill="url(#paint2_linear_110_107)"/>
<path d="M29.6753 86.8179C44.5661 86.8179 56.6423 82.4736 56.6423 62.7727C56.6423 43.0718 44.5661 26.9051 29.6753 26.9051C14.7843 26.9051 2.71777 43.0716 2.71777 62.7727C2.71777 82.4739 14.7843 86.8179 29.6753 86.8179Z" fill="url(#paint3_linear_110_107)"/>
<path d="M43.2953 58.7505C45.4226 58.7505 47.147 57.945 47.147 56.9514C47.147 55.9577 45.4226 55.1522 43.2953 55.1522C41.1681 55.1522 39.4436 55.9577 39.4436 56.9514C39.4436 57.945 41.1681 58.7505 43.2953 58.7505Z" fill="#EAADCC"/>
<path d="M14.7711 57.6576C16.8825 57.918 18.6919 57.3295 18.8124 56.3433C18.933 55.3571 17.3192 54.3465 15.2078 54.0862C13.0964 53.8258 11.287 54.4142 11.1664 55.4005C11.0459 56.3867 12.6597 57.3973 14.7711 57.6576Z" fill="#EAADCC"/>
<path d="M25.1947 55.2713C25.156 55.2109 25.1057 55.1588 25.0466 55.1181C24.9876 55.0775 24.9211 55.0491 24.851 55.0346C24.7809 55.02 24.7087 55.0197 24.6384 55.0337C24.5682 55.0476 24.5015 55.0754 24.4421 55.1156C24.3828 55.1558 24.332 55.2074 24.2928 55.2675C24.2536 55.3277 24.2267 55.3951 24.2138 55.4658C24.2009 55.5364 24.2021 55.609 24.2175 55.6792C24.2329 55.7494 24.262 55.8158 24.3033 55.8746C25.128 57.1036 26.3962 57.8169 28.065 58.0085C29.7264 58.1991 31.2098 57.7715 32.482 56.7332C32.5388 56.6892 32.5862 56.6343 32.6215 56.5715C32.6568 56.5088 32.6792 56.4397 32.6875 56.3681C32.6958 56.2965 32.6897 56.2241 32.6696 56.1549C32.6496 56.0857 32.6159 56.0213 32.5707 55.9654C32.5255 55.9095 32.4695 55.8632 32.4062 55.8294C32.3429 55.7955 32.2735 55.7747 32.2021 55.7682C32.1306 55.7617 32.0586 55.7696 31.9903 55.7915C31.9219 55.8134 31.8587 55.8488 31.8041 55.8956C30.7575 56.7495 29.563 57.0939 28.1872 56.9359C26.8184 56.7787 25.8354 56.2262 25.1947 55.2713ZM17.2259 46.9511C17.7315 46.9327 18.2357 47.0149 18.7096 47.1928C19.1835 47.3708 19.6177 47.641 19.9873 47.988C20.3578 48.334 20.6566 48.7502 20.8664 49.2125C21.0762 49.6749 21.193 50.1743 21.21 50.6821C21.2283 51.1899 21.1465 51.6962 20.9693 52.1721C20.7922 52.648 20.5231 53.084 20.1775 53.4551C19.833 53.8272 19.4187 54.1273 18.9583 54.338C18.4979 54.5487 18.0006 54.666 17.4949 54.6831C16.9893 54.7015 16.4851 54.6194 16.0112 54.4414C15.5373 54.2635 15.1031 53.9932 14.7335 53.6462C14.3631 53.3001 14.0645 52.884 13.8547 52.4216C13.6449 51.9593 13.5283 51.4599 13.5113 50.9521C13.493 50.4444 13.5747 49.938 13.7519 49.4622C13.929 48.9863 14.1981 48.5503 14.5435 48.1791C14.888 47.8071 15.3023 47.507 15.7627 47.2963C16.223 47.0856 16.7203 46.9683 17.2259 46.9511Z" fill="black"/>
<path d="M17.4279 50.1845C17.4229 50.0187 17.3853 49.8555 17.3173 49.7043C17.2493 49.5531 17.1523 49.4168 17.0317 49.3034C16.9111 49.19 16.7694 49.1016 16.6147 49.0434C16.4601 48.9851 16.2955 48.9581 16.1304 48.9639C15.9653 48.9697 15.8029 49.0082 15.6527 49.0772C15.5025 49.1462 15.3673 49.2444 15.2549 49.366C15.1426 49.4876 15.0552 49.6303 14.998 49.786C14.9407 49.9416 14.9146 50.107 14.9212 50.2728C14.9328 50.6067 15.0761 50.9222 15.3194 51.15C15.5627 51.3778 15.8862 51.4992 16.2186 51.4875C16.5511 51.4758 16.8653 51.3319 17.0921 51.0876C17.3189 50.8432 17.4398 50.5184 17.4282 50.1845" fill="white"/>
<path d="M40.5638 47.9331C41.0694 47.9146 41.5737 47.9967 42.0476 48.1746C42.5216 48.3525 42.9558 48.6227 43.3254 48.9697C43.6959 49.3158 43.9945 49.7319 44.2043 50.1943C44.414 50.6566 44.5307 51.1561 44.5477 51.6638C44.566 52.1716 44.4843 52.678 44.3071 53.1539C44.13 53.6298 43.861 54.0659 43.5154 54.4371C43.1709 54.8091 42.7565 55.1091 42.2961 55.3198C41.8358 55.5305 41.3385 55.6477 40.8328 55.6648C40.3273 55.6832 39.8231 55.601 39.3492 55.4231C38.8754 55.2451 38.4412 54.9749 38.0717 54.6279C37.7012 54.2819 37.4024 53.8657 37.1926 53.4034C36.9827 52.941 36.866 52.4416 36.8489 51.9338C36.8307 51.4261 36.9124 50.9197 37.0896 50.4438C37.2668 49.9679 37.5359 49.5319 37.8814 49.1608C38.226 48.7888 38.6403 48.4888 39.1007 48.2781C39.5611 48.0674 40.0581 47.9501 40.5638 47.9331Z" fill="black"/>
<path d="M17.1974 46.1421C19.7685 46.0519 21.9256 48.0718 22.0154 50.6537C22.1052 53.2356 20.0939 55.4019 17.5227 55.4921C14.9516 55.5822 12.7951 53.5623 12.7053 50.9802C12.6155 48.3983 14.6266 46.2322 17.1974 46.1421ZM20.404 50.7102C20.3454 49.022 18.935 47.7012 17.2537 47.7604C15.5729 47.8192 14.2578 49.2354 14.3167 50.9236C14.3753 52.6121 15.7855 53.9326 17.4665 53.8738C19.1475 53.8149 20.4626 52.3987 20.404 50.7102ZM40.5357 47.1238C43.1068 47.0336 45.2636 49.0535 45.3534 51.6354C45.4432 54.2173 43.4319 56.3836 40.861 56.4738C38.2901 56.5639 36.133 54.544 36.0433 51.9621C35.9535 49.3803 37.9648 47.2139 40.5357 47.1238ZM43.742 51.6919C43.6834 50.0037 42.2732 48.6832 40.5919 48.7421C38.9107 48.801 37.5958 50.2174 37.6547 51.9056C37.7136 53.5938 39.1234 54.9146 40.8045 54.8557C42.4857 54.7966 43.8006 53.3804 43.742 51.6919Z" fill="white"/>
<path d="M40.7661 51.1665C40.7612 51.0006 40.7237 50.8373 40.6558 50.6859C40.5879 50.5346 40.4908 50.3983 40.3702 50.2848C40.2497 50.1712 40.1079 50.0828 39.9532 50.0244C39.7985 49.9661 39.6338 49.9391 39.4686 49.9449C39.3034 49.9507 39.141 49.9892 38.9907 50.0582C38.8404 50.1273 38.7052 50.2255 38.5928 50.3472C38.4805 50.4689 38.3931 50.6117 38.3359 50.7674C38.2787 50.9231 38.2526 51.0887 38.2593 51.2545C38.2727 51.5871 38.4167 51.9008 38.6597 52.1272C38.9027 52.3535 39.2251 52.474 39.5563 52.4624C39.8875 52.4507 40.2007 52.3079 40.4274 52.0651C40.6541 51.8223 40.7758 51.4992 40.7661 51.1665Z" fill="white"/>
<path d="M9.96702 63.9121L15.8112 70.0192L20.0045 65.5393C20.1844 65.3522 20.4305 65.2437 20.6895 65.2374C20.9485 65.2311 21.1995 65.3274 21.3883 65.5056C21.577 65.6838 21.6883 65.9295 21.698 66.1895C21.7078 66.4495 21.6152 66.7029 21.4402 66.8948L17.1787 71.4482L23.2244 77.7659C23.314 77.8596 23.3845 77.9701 23.4316 78.0912C23.4787 78.2122 23.5017 78.3414 23.4991 78.4713C23.4965 78.6013 23.4685 78.7294 23.4166 78.8485C23.3647 78.9675 23.29 79.0752 23.1966 79.1652C23.1033 79.2553 22.9933 79.326 22.8727 79.3733C22.7522 79.4207 22.6236 79.4437 22.4942 79.4411C22.3648 79.4385 22.2372 79.4104 22.1186 79.3582C22.0001 79.3061 21.8929 79.2311 21.8032 79.1374L15.8272 72.892L13.0202 75.891C12.9316 75.9857 12.8252 76.0619 12.7073 76.1153C12.5893 76.1687 12.462 76.1983 12.3327 76.2023C12.2033 76.2063 12.0745 76.1847 11.9535 76.1387C11.8324 76.0927 11.7216 76.0231 11.6274 75.9341C11.5331 75.8451 11.4572 75.7383 11.404 75.6198C11.3508 75.5014 11.3214 75.3735 11.3174 75.2436C11.3134 75.1138 11.335 74.9843 11.3808 74.8628C11.4266 74.7413 11.4958 74.63 11.5844 74.5353L14.4597 71.4632L8.54615 65.2836C8.45648 65.1899 8.38606 65.0793 8.33893 64.9583C8.29179 64.8373 8.26886 64.7081 8.27144 64.5781C8.27401 64.4482 8.30205 64.32 8.35394 64.201C8.40584 64.0819 8.48057 63.9743 8.57389 63.8842C8.6672 63.7942 8.77726 63.7235 8.89779 63.6761C9.01831 63.6288 9.14694 63.6058 9.27633 63.6084C9.40572 63.6109 9.53333 63.6391 9.65188 63.6912C9.77044 63.7433 9.87735 63.8184 9.96702 63.9121ZM49.2136 63.9121C49.3947 63.7229 49.6432 63.6136 49.9045 63.6084C50.0339 63.6059 50.1625 63.6289 50.283 63.6763C50.4035 63.7236 50.5135 63.7943 50.6068 63.8844C50.7001 63.9744 50.7748 64.082 50.8267 64.2011C50.8786 64.3202 50.9066 64.4483 50.9092 64.5782C50.9118 64.7082 50.8888 64.8373 50.8417 64.9584C50.7945 65.0794 50.7241 65.1899 50.6344 65.2836L44.7206 71.4632L47.5964 74.5353C47.77 74.7208 47.8658 74.9664 47.8637 75.221C47.8617 75.4756 47.762 75.7196 47.5854 75.9023L47.5532 75.9341C47.4589 76.0231 47.3481 76.0926 47.2271 76.1386C47.1061 76.1846 46.9772 76.2062 46.8479 76.2022C46.7185 76.1981 46.5912 76.1686 46.4733 76.1151C46.3553 76.0617 46.249 75.9855 46.1604 75.8908L43.3534 72.8918L37.3773 79.1374C37.2017 79.321 36.9622 79.4295 36.7089 79.4404C36.4556 79.4512 36.2078 79.3636 36.0172 79.1957L35.984 79.1652C35.8906 79.0752 35.8159 78.9675 35.764 78.8484C35.7122 78.7294 35.6841 78.6012 35.6816 78.4713C35.679 78.3413 35.702 78.2121 35.7492 78.0911C35.7963 77.9701 35.8668 77.8596 35.9565 77.7659L42.0022 71.4482L37.7403 66.8948C37.5668 66.7093 37.4711 66.4637 37.4731 66.2092C37.4752 65.9547 37.5748 65.7107 37.7513 65.528L37.7835 65.4962C37.9739 65.3165 38.2276 65.2201 38.4887 65.2282C38.7499 65.2363 38.9971 65.3482 39.1761 65.5393L43.3691 70.0192L49.2136 63.9121Z" fill="#ECB732"/>
<path d="M35.7512 33.3123C35.9359 33.4979 36.0396 33.7495 36.0396 34.0119C36.0396 34.2742 35.9359 34.5259 35.7512 34.7114L31.1633 39.3193L33.9595 42.128C34.1388 42.308 34.2421 42.5505 34.248 42.805C34.2538 43.0596 34.1617 43.3066 33.9909 43.4947L33.9595 43.5276C33.7747 43.7131 33.5241 43.8174 33.2628 43.8174C33.0015 43.8174 32.7509 43.7131 32.5661 43.5276L29.7694 40.7189L26.9726 43.5276C26.8812 43.6198 26.7725 43.693 26.6529 43.743C26.5333 43.793 26.405 43.8188 26.2754 43.819C26.1458 43.8191 26.0174 43.7936 25.8977 43.7438C25.7779 43.6941 25.6691 43.6211 25.5775 43.5291C25.4859 43.437 25.4132 43.3278 25.3637 43.2075C25.3142 43.0872 25.2888 42.9583 25.289 42.8282C25.2891 42.698 25.3148 42.5692 25.3647 42.449C25.4145 42.3289 25.4874 42.2198 25.5792 42.128L28.3757 39.3193L23.7878 34.7117C23.6085 34.5317 23.5051 34.2892 23.4993 34.0346C23.4934 33.7801 23.5855 33.533 23.7564 33.3449L23.7878 33.3121C23.9726 33.1265 24.2232 33.0223 24.4845 33.0223C24.7458 33.0223 24.9964 33.1265 25.1812 33.3121L29.7694 37.9196L34.3575 33.3121C34.4491 33.2202 34.5577 33.1472 34.6772 33.0975C34.7968 33.0478 34.925 33.0222 35.0544 33.0222C35.1838 33.0222 35.3119 33.0478 35.4315 33.0975C35.5511 33.1472 35.6597 33.2204 35.7512 33.3123Z" fill="#FFC73B"/>
</g>
<defs>
<linearGradient id="paint0_linear_110_107" x1="908.113" y1="-692.171" x2="1207.61" y2="755.051" gradientUnits="userSpaceOnUse">
<stop stop-color="#52CE63"/>
<stop offset="1" stop-color="#51A256"/>
</linearGradient>
<linearGradient id="paint1_linear_110_107" x1="764.191" y1="924.816" x2="-678.034" y2="1220.35" gradientUnits="userSpaceOnUse">
<stop stop-color="#52CE63"/>
<stop offset="1" stop-color="#51A256"/>
</linearGradient>
<linearGradient id="paint2_linear_110_107" x1="942.672" y1="112.921" x2="662.977" y2="2381.14" gradientUnits="userSpaceOnUse">
<stop stop-color="#8AE99C"/>
<stop offset="1" stop-color="#52CE63"/>
</linearGradient>
<linearGradient id="paint3_linear_110_107" x1="2773.25" y1="1073.76" x2="2321.78" y2="6010.39" gradientUnits="userSpaceOnUse">
<stop stop-color="#FFE56C"/>
<stop offset="1" stop-color="#FFC63A"/>
</linearGradient>
<clipPath id="clip0_110_107">
<rect width="67" height="87" fill="white"/>
</clipPath>
</defs>
</svg>
