<svg width="31" height="31" viewBox="0 0 31 31" fill="none" xmlns="http://www.w3.org/2000/svg">
<path d="M26.1821 10.0698L21.5192 12.493L15.8462 15.3812C15.7403 15.4402 15.6212 15.4712 15.5 15.4712C15.3788 15.4712 15.2596 15.4402 15.1538 15.3812L9.48212 12.493L4.81791 10.0698C4.69133 10.0058 4.585 9.90788 4.51071 9.78703C4.43642 9.66617 4.39709 9.52709 4.39709 9.38524C4.39709 9.24338 4.43642 9.1043 4.51071 8.98345C4.585 8.8626 4.69133 8.76471 4.81791 8.70065L15.1693 3.63086C15.2719 3.57929 15.3852 3.55243 15.5 3.55243C15.6148 3.55243 15.7281 3.57929 15.8307 3.63086L26.1821 8.70065C26.3086 8.76471 26.415 8.8626 26.4893 8.98345C26.5636 9.1043 26.6029 9.24338 26.6029 9.38524C26.6029 9.52709 26.5636 9.66617 26.4893 9.78703C26.415 9.90788 26.3086 10.0058 26.1821 10.0698Z" stroke="black" stroke-width="1.5" stroke-linecap="round" stroke-linejoin="round"/>
<path d="M9.48082 12.493L4.81791 14.7185C4.69133 14.7826 4.585 14.8805 4.51071 15.0013C4.43642 15.1222 4.39709 15.2612 4.39709 15.4031C4.39709 15.545 4.43642 15.684 4.51071 15.8049C4.585 15.9257 4.69133 16.0236 4.81791 16.0877L9.48082 18.5109L15.1538 21.399C15.2596 21.4581 15.3788 21.4891 15.5 21.4891C15.6212 21.4891 15.7403 21.4581 15.8462 21.399L21.5179 18.5109L26.1821 16.089C26.2943 16.0205 26.3871 15.9243 26.4514 15.8096C26.5158 15.6949 26.5496 15.5656 26.5496 15.4341C26.5496 15.3026 26.5158 15.1733 26.4514 15.0586C26.3871 14.944 26.2943 14.8477 26.1821 14.7792L21.5192 12.493" stroke="black" stroke-width="1.5" stroke-linecap="round" stroke-linejoin="round"/>
<path d="M9.48082 18.5096L4.81791 20.7377C4.69133 20.8018 4.585 20.8997 4.51071 21.0205C4.43642 21.1414 4.39709 21.2804 4.39709 21.4223C4.39709 21.5641 4.43642 21.7032 4.51071 21.8241C4.585 21.9449 4.69133 22.0428 4.81791 22.1069L15.1538 27.3575C15.2596 27.4165 15.3788 27.4475 15.5 27.4475C15.6212 27.4475 15.7403 27.4165 15.8462 27.3575L26.1821 22.1069C26.2943 22.0384 26.3871 21.9421 26.4514 21.8275C26.5158 21.7128 26.5496 21.5835 26.5496 21.452C26.5496 21.3205 26.5158 21.1912 26.4514 21.0765C26.3871 20.9619 26.2943 20.8656 26.1821 20.7971L21.5192 18.5109" stroke="black" stroke-width="1.5" stroke-linecap="round" stroke-linejoin="round"/>
</svg>
