<svg width="66" height="66" viewBox="0 0 66 66" fill="none" xmlns="http://www.w3.org/2000/svg">
<g clip-path="url(#clip0_106_97)">
<path d="M10.2223 33.6832C9.47466 33.6832 8.77856 33.2061 8.54653 32.4584C6.65161 26.5416 6.3809 16.0873 10.4415 11.3436C9.53911 7.91469 10.0418 3.27406 11.7047 0.786173C12.0527 0.270548 12.6199 -0.0259367 13.2515 -0.000155445C17.9824 0.206159 21.0633 2.17836 23.7703 3.98305C27.6246 2.97764 31.3758 2.62953 35.823 2.87445C36.9187 2.93891 38.0016 3.18383 38.9555 3.40297C39.8578 3.60922 40.7859 3.82843 41.3273 3.77686C41.8172 3.7253 42.6937 3.13233 43.4027 2.64249C44.0601 2.19132 44.7562 1.72725 45.4781 1.40499C47.5406 0.502644 49.3969 0.0901434 51.8976 -9.09916e-05C52.8644 -0.0258722 53.6894 0.72172 53.7281 1.70147C53.7667 2.68122 53.0062 3.4932 52.0265 3.51905C49.9511 3.59639 48.5589 3.89288 46.896 4.62764C46.4706 4.821 45.9421 5.16905 45.3878 5.55577C44.2921 6.30343 43.0417 7.15421 41.6495 7.28311C40.5281 7.38624 39.3679 7.12843 38.1433 6.83194C37.2925 6.63858 36.4031 6.43233 35.6167 6.38077C31.2726 6.13585 27.6632 6.50968 23.9249 7.5796C23.4351 7.72139 22.9066 7.64405 22.4683 7.34757L22.03 7.05108C19.671 5.49138 17.4411 3.99607 14.1797 3.59646C13.3676 5.67185 13.2646 9.11365 14.0766 11.1504C14.3603 11.8465 14.154 12.6585 13.5868 13.1355C10.4028 15.8426 10.0032 25.4203 11.8982 31.3629C12.1946 32.291 11.679 33.2836 10.7509 33.5801C10.5704 33.6574 10.3899 33.6832 10.2223 33.6832ZM23.6285 51.0854C23.4996 51.0854 23.3706 51.0725 23.2417 51.0467C22.2877 50.8405 21.6948 49.8995 21.901 48.9456L22.017 48.4428C22.5584 45.9936 23.0612 44.0213 23.6542 42.5518C16.4225 41.0436 11.1502 37.6018 8.64946 32.7291C8.21118 31.8655 8.54634 30.7956 9.41007 30.3573C10.2738 29.919 11.3437 30.2542 11.7819 31.1179C14.0378 35.5137 19.3487 38.4914 26.748 39.5097C27.457 39.6129 28.037 40.1285 28.2175 40.8116C28.398 41.5077 28.1402 42.2425 27.5601 42.6679C27.1863 43.003 26.503 44.4081 25.4589 49.1905L25.3429 49.7062C25.1624 50.5183 24.4405 51.0854 23.6284 51.0854H23.6285ZM20.3799 63.9889C20.2639 63.9889 20.1607 63.976 20.0447 63.9503C19.0908 63.7569 18.4592 62.8674 18.6525 61.9135C18.9748 60.2764 20.1221 59.5932 20.8053 59.1936C21.2693 58.9229 21.4111 58.8198 21.4885 58.6393C21.8881 57.7885 21.7849 55.5842 21.6947 53.8182C21.656 53.0706 21.6174 52.31 21.6045 51.5752C17.5182 52.2842 13.0838 52.5034 10.7377 48.6233C10.2736 47.8499 9.97713 47.0635 9.70643 46.3545C9.39705 45.5553 9.13924 44.8592 8.71385 44.3436C8.09517 43.5959 8.21112 42.4874 8.95877 41.8686C9.70643 41.2499 10.815 41.353 11.4338 42.1135C12.2201 43.0803 12.6326 44.1631 12.9935 45.117C13.2256 45.7358 13.4447 46.3159 13.7412 46.8057C15.0045 48.894 17.763 48.7651 23.074 47.6952C23.6283 47.5792 24.1954 47.7467 24.608 48.1206C25.0205 48.5073 25.2267 49.0616 25.1623 49.6158C25.0334 50.7373 25.1107 52.2068 25.1752 53.6248C25.3041 56.1127 25.4201 58.4588 24.6338 60.1217C24.0666 61.3205 23.1514 61.8619 22.5455 62.21C22.3779 62.3131 22.1201 62.4549 22.0685 62.5193C21.9525 63.383 21.2178 63.9889 20.3799 63.9889ZM46.0064 63.6538C45.4263 63.6538 44.872 63.3704 44.524 62.8547C44.3822 62.6227 44.1759 62.4809 43.815 62.236C43.2478 61.8364 42.4743 61.295 41.8943 60.1735C40.8501 58.1239 41.0177 55.1461 41.1853 52.0008C41.2883 50.0672 41.3914 48.0692 41.1851 46.4965C41.0047 45.1688 40.5406 44.5758 39.8961 43.7508C39.4836 43.2094 39.0066 42.6035 38.6328 41.8042C38.3879 41.2757 38.4266 40.6698 38.7102 40.1671C39.0066 39.6644 39.5223 39.3421 40.1023 39.3034C46.7152 38.8136 51.9359 35.6941 54.4496 30.7569C54.8879 29.8933 55.9449 29.5452 56.8215 29.9835C57.6852 30.4218 58.0332 31.4788 57.5949 32.3554C54.9137 37.6534 49.7961 41.2241 43.325 42.4487C43.9051 43.2995 44.4723 44.3823 44.6914 46.0452C44.9492 47.9402 44.8332 50.1058 44.7172 52.1941C44.5883 54.6175 44.4465 57.3632 45.0524 58.5749C45.2071 58.8843 45.4004 59.0261 45.8387 59.3355C46.3157 59.6577 46.9602 60.1089 47.4887 60.921C48.0172 61.733 47.7853 62.8288 46.9732 63.3573C46.6768 63.5635 46.3416 63.6538 46.0064 63.6538H46.0064ZM56.0224 33.3224C55.8677 33.3224 55.7 33.2966 55.5453 33.258C54.6043 32.9873 54.0629 32.0205 54.3336 31.0795C56.2801 24.2345 54.9523 15.34 51.5492 12.4396C50.995 11.9627 50.7887 11.2021 51.0336 10.5189C51.8586 8.15993 51.3043 4.61501 50.3633 2.47517C49.9766 1.58571 50.3762 0.541573 51.2657 0.154854C52.1551 -0.231864 53.1993 0.167745 53.586 1.0572C54.6688 3.50642 55.3778 7.36072 54.6688 10.5705C58.8712 15.2111 59.6962 25.1111 57.7239 32.0463C57.4919 32.8197 56.7958 33.3224 56.0224 33.3224ZM40.1926 66.026C39.8704 66.026 39.5352 65.9357 39.2387 65.7424C38.9165 65.5361 37.9497 64.9174 36.1579 62.133C35.3458 60.8697 34.7528 54.5791 34.3919 43.4158C34.3661 42.449 35.1267 41.6241 36.0935 41.5982C37.0603 41.5724 37.8853 42.333 37.9111 43.2998C38.1431 50.6088 38.6845 58.8974 39.1743 60.3154C40.4892 62.3521 41.1079 62.7646 41.1337 62.7775C41.9458 63.306 42.1907 64.3889 41.6622 65.2139C41.3399 65.7424 40.7727 66.026 40.1926 66.026ZM26.825 66.026C26.2449 66.026 25.6777 65.7424 25.3426 65.2139C24.8141 64.4017 25.059 63.306 25.8711 62.7775C25.8969 62.7646 26.5156 62.3521 27.8305 60.3154C28.3203 58.9103 28.8488 50.6088 29.0937 43.2998C29.1195 42.333 29.9445 41.5596 30.9113 41.5982C31.8781 41.624 32.6516 42.449 32.6129 43.4158C32.2519 54.5791 31.659 60.8826 30.8469 62.133C29.0551 64.9045 28.0883 65.5361 27.766 65.7424C27.4824 65.9357 27.1473 66.026 26.825 66.026Z" fill="black"/>
</g>
<defs>
<clipPath id="clip0_106_97">
<rect width="66" height="66" fill="white"/>
</clipPath>
</defs>
</svg>
