<svg width="66" height="66" viewBox="0 0 66 66" fill="none" xmlns="http://www.w3.org/2000/svg">
<g clip-path="url(#clip0_106_95)">
<path d="M64.3109 64.6097H50.903C49.9546 64.6097 49.1881 63.8432 49.1881 62.8948V41.3019C49.1881 33.8964 45.3684 33.8964 44.1082 33.8964C40.7172 33.8964 39.2751 36.5728 38.8073 37.7292C38.5865 38.2489 38.4825 39.1323 38.4825 40.3666V62.908C38.4825 63.8564 37.716 64.6229 36.7677 64.6229H23.3468C22.8921 64.6229 22.4503 64.441 22.1255 64.1163C21.8007 63.7915 21.6189 63.3496 21.6318 62.8949C21.6318 62.5312 21.8137 26.3221 21.6318 22.6193C21.6058 22.1516 21.7747 21.6969 22.0996 21.3591C22.4244 21.0213 22.8661 20.8264 23.3467 20.8264H36.7677C37.716 20.8264 38.4826 21.5929 38.4826 22.5413V23.5547C40.7432 21.5409 44.0042 19.8779 48.8632 19.8779C59.6077 19.8779 66.0258 27.3093 66.0258 39.7558V62.8948C66.0258 63.8432 65.2593 64.6097 64.3109 64.6097ZM52.618 61.1799L62.609 61.1796V39.7556C62.609 29.2969 57.607 23.3076 48.8763 23.3076C43.0428 23.3076 40.2105 26.2179 38.4306 28.8813C38.2227 29.5829 37.5601 30.1026 36.7806 30.1026H36.6897C36.066 30.1026 35.4944 29.7647 35.1956 29.2191C34.9618 28.7903 34.9098 28.2966 35.0657 27.8419V24.2432H25.1007C25.1917 31.4018 25.1007 54.5669 25.0748 61.1669H35.0527V40.3534C35.0527 38.6255 35.2346 37.3783 35.6243 36.4298C37.1314 32.7011 40.3014 30.4535 44.0952 30.4535C49.4999 30.4535 52.6049 34.4032 52.6049 41.2889V61.1798H52.6181L52.618 61.1799ZM15.9283 64.6095H2.50743C1.559 64.6095 0.792522 63.843 0.792522 62.8946V22.5412C0.792522 21.5927 1.559 20.8262 2.50743 20.8262H15.9283C16.8767 20.8262 17.6432 21.5927 17.6432 22.5411V62.8946C17.6432 63.843 16.8767 64.6096 15.9283 64.6096V64.6095ZM4.22246 61.1797H14.2133V24.256H4.22252L4.22246 61.1797ZM9.22434 18.7474L9.13333 18.7473C3.84554 18.7473 -0.00012207 15.0835 -0.00012207 10.0426C-0.00012207 5.01467 3.9105 1.35083 9.31522 1.35083C14.629 1.35083 18.4228 4.91064 18.5267 10.0036C18.5267 15.0835 14.6161 18.7474 9.22434 18.7474ZM9.31522 4.79379C5.79434 4.79379 3.42981 6.91153 3.42981 10.0557C3.42981 13.1478 5.76843 15.3174 9.1334 15.3174H9.22428C12.7322 15.3174 15.0967 13.1997 15.0967 10.0556C15.0318 6.87253 12.7582 4.79379 9.31522 4.79379Z" fill="black"/>
</g>
<defs>
<clipPath id="clip0_106_95">
<rect width="66" height="66" fill="white"/>
</clipPath>
</defs>
</svg>
