<svg width="66" height="66" viewBox="0 0 66 66" fill="none" xmlns="http://www.w3.org/2000/svg">
<path fill-rule="evenodd" clip-rule="evenodd" d="M33 9.76245C27.2365 9.75363 21.6729 11.8744 17.3777 15.7176C13.0825 19.5607 10.3586 24.8553 9.72906 30.5843C9.09954 36.3134 10.6088 42.0731 13.967 46.7572C17.3252 51.4413 22.2956 54.7196 27.9235 55.9625V41.7312H24.0955C23.4036 41.7305 22.7402 41.4553 22.2509 40.966C21.7617 40.4768 21.4865 39.8134 21.4858 39.1215V34.4437C21.4865 33.7518 21.7617 33.0884 22.2509 32.5991C22.7402 32.1099 23.4036 31.8347 24.0955 31.834H27.8713L27.742 28.3305V28.2755C27.742 25.8527 28.16 21.3152 31.724 18.766C32.8653 17.9492 33.9157 17.4267 35.0597 17.1215C36.1872 16.819 37.3285 16.7502 38.6072 16.7502C40.8512 16.7502 42.4023 16.973 43.3978 17.116L43.8598 17.182C44.7948 17.303 45.4822 18.1005 45.4822 19.03V24.2082C45.4823 24.4626 45.4304 24.7143 45.3298 24.948C45.2292 25.1816 45.082 25.3923 44.8971 25.5671C44.7123 25.7418 44.4937 25.8771 44.2549 25.9645C44.016 26.0519 43.7617 26.0897 43.5078 26.0755H43.505C43.1282 26.092 41.6625 26.1497 40.403 26.1497C39.457 26.1497 38.9812 26.367 38.7062 26.6585C38.412 26.9747 38.0765 27.6705 38.0765 29.2297V31.834H42.2648C42.6425 31.8344 43.0156 31.9167 43.3584 32.0753C43.7013 32.2338 44.0056 32.4648 44.2506 32.7524C44.4955 33.0399 44.6752 33.3771 44.7772 33.7408C44.8792 34.1045 44.9011 34.486 44.8415 34.859L44.132 39.5505C44.0299 40.1596 43.7154 40.7128 43.2442 41.112C42.773 41.5112 42.1756 41.7306 41.558 41.7312H38.0765V55.9597C43.7016 54.7142 48.6686 51.4352 52.0243 46.7519C55.3799 42.0686 56.8877 36.3111 56.2584 30.5842C55.6291 24.8573 52.907 19.5646 48.6144 15.7217C44.3219 11.8789 38.7614 9.75671 33 9.76245ZM6.875 33.1375C6.875 26.2087 9.62745 19.5637 14.5268 14.6643C19.4262 9.7649 26.0712 7.01245 33 7.01245C39.9288 7.01245 46.5738 9.7649 51.4732 14.6643C56.3726 19.5637 59.125 26.2087 59.125 33.1375C59.125 46.2385 49.4808 57.0872 36.905 58.9737C36.7093 59.003 36.5096 58.9897 36.3195 58.9347C36.1294 58.8797 35.9534 58.7844 35.8035 58.6551C35.6537 58.5259 35.5335 58.3659 35.4511 58.1859C35.3688 58.006 35.3263 57.8104 35.3265 57.6125V40.3562C35.3265 39.9915 35.4714 39.6418 35.7292 39.3839C35.9871 39.1261 36.3368 38.9812 36.7015 38.9812H41.437L42.0998 34.584H36.7015C36.3368 34.584 35.9871 34.4391 35.7292 34.1812C35.4714 33.9234 35.3265 33.5736 35.3265 33.209V29.2325C35.3265 27.3707 35.7115 25.8362 36.7015 24.7802C37.7107 23.7022 39.0885 23.4025 40.403 23.4025C41.2088 23.4025 42.1108 23.375 42.7295 23.3557V19.8C41.3649 19.5968 39.9869 19.4966 38.6072 19.5002C37.4137 19.5002 36.5502 19.569 35.7692 19.778C35.0075 19.9815 34.254 20.339 33.3217 21.0017C30.965 22.6902 30.492 25.8967 30.4892 28.2535L30.6735 33.1595C30.6802 33.3441 30.6495 33.5283 30.5834 33.7009C30.5173 33.8734 30.417 34.0309 30.2887 34.1639C30.1603 34.2969 30.0065 34.4026 29.8364 34.4748C29.6662 34.5469 29.4833 34.5841 29.2985 34.584H24.2385V38.9812H29.2985C29.6632 38.9812 30.0129 39.1261 30.2708 39.3839C30.5286 39.6418 30.6735 39.9915 30.6735 40.3562V57.6125C30.6737 57.8104 30.6312 58.006 30.5489 58.1859C30.4665 58.3659 30.3463 58.5259 30.1965 58.6551C30.0466 58.7844 29.8706 58.8797 29.6805 58.9347C29.4904 58.9897 29.2907 59.003 29.095 58.9737C16.5192 57.0872 6.875 46.2412 6.875 33.1375Z" fill="black"/>
</svg>
