<svg width="31" height="31" viewBox="0 0 31 31" fill="none" xmlns="http://www.w3.org/2000/svg">
<path d="M15.5 9.04167C14.8149 9.04167 14.1578 8.76949 13.6733 8.28503C13.1888 7.80056 12.9167 7.14348 12.9167 6.45833C12.9167 5.77319 13.1888 5.11611 13.6733 4.63164C14.1578 4.14717 14.8149 3.875 15.5 3.875C16.1851 3.875 16.8422 4.14717 17.3267 4.63164C17.8112 5.11611 18.0833 5.77319 18.0833 6.45833C18.0833 7.14348 17.8112 7.80056 17.3267 8.28503C16.8422 8.76949 16.1851 9.04167 15.5 9.04167ZM15.5 9.04167V14.2083M15.5 14.2083C16.5277 14.2083 17.5133 14.6166 18.24 15.3433C18.9667 16.07 19.375 17.0556 19.375 18.0833C19.375 19.111 18.9667 20.0967 18.24 20.8234C17.5133 21.5501 16.5277 21.9583 15.5 21.9583C14.4723 21.9583 13.4867 21.5501 12.76 20.8234C12.0333 20.0967 11.625 19.111 11.625 18.0833C11.625 17.0556 12.0333 16.07 12.76 15.3433C13.4867 14.6166 14.4723 14.2083 15.5 14.2083ZM8.65417 22.9917L12.2708 20.4083M22.3458 22.9917L18.7292 20.4083M3.875 24.5417C3.875 25.2268 4.14717 25.8839 4.63164 26.3684C5.11611 26.8528 5.77319 27.125 6.45833 27.125C7.14348 27.125 7.80056 26.8528 8.28503 26.3684C8.76949 25.8839 9.04167 25.2268 9.04167 24.5417C9.04167 23.8565 8.76949 23.1994 8.28503 22.715C7.80056 22.2305 7.14348 21.9583 6.45833 21.9583C5.77319 21.9583 5.11611 22.2305 4.63164 22.715C4.14717 23.1994 3.875 23.8565 3.875 24.5417ZM21.9583 24.5417C21.9583 25.2268 22.2305 25.8839 22.715 26.3684C23.1994 26.8528 23.8565 27.125 24.5417 27.125C25.2268 27.125 25.8839 26.8528 26.3684 26.3684C26.8528 25.8839 27.125 25.2268 27.125 24.5417C27.125 23.8565 26.8528 23.1994 26.3684 22.715C25.8839 22.2305 25.2268 21.9583 24.5417 21.9583C23.8565 21.9583 23.1994 22.2305 22.715 22.715C22.2305 23.1994 21.9583 23.8565 21.9583 24.5417Z" stroke="black" stroke-width="2" stroke-linecap="round" stroke-linejoin="round"/>
</svg>
