<svg width="38" height="38" viewBox="0 0 38 38" fill="none" xmlns="http://www.w3.org/2000/svg">
<rect x="0.5" y="0.5" width="37" height="37" stroke="black"/>
<path fill-rule="evenodd" clip-rule="evenodd" d="M19.1155 32C26.9983 32 33.5001 28.3429 33.5001 23.5384C33.5001 18.734 26.9983 15.0769 19.1155 15.0769C11.2327 15.0769 4.7309 18.734 4.7309 23.5384C4.7309 28.3429 11.2327 32 19.1155 32ZM19.1155 16.7692C26.1877 16.7692 31.8078 19.9304 31.8078 23.5384C31.8078 27.1464 26.1877 30.3077 19.1155 30.3077C12.0434 30.3077 6.4232 27.1464 6.4232 23.5384C6.4232 19.9304 12.0434 16.7692 19.1155 16.7692Z" fill="black"/>
<path d="M18.2693 10.8462C18.2693 10.6217 18.3585 10.4065 18.5172 10.2478C18.6758 10.0891 18.8911 10 19.1155 10C19.3399 10 19.5551 10.0891 19.7138 10.2478C19.8725 10.4065 19.9616 10.6217 19.9616 10.8462V15.9231C19.9616 16.1475 19.8725 16.3627 19.7138 16.5214C19.5551 16.6801 19.3399 16.7692 19.1155 16.7692C18.8911 16.7692 18.6758 16.6801 18.5172 16.5214C18.3585 16.3627 18.2693 16.1475 18.2693 15.9231V10.8462ZM25.0555 11.5265C25.1059 11.313 25.2372 11.1274 25.4218 11.0088C25.6064 10.8903 25.8298 10.8481 26.045 10.8911C26.2601 10.9342 26.4501 11.059 26.5749 11.2395C26.6997 11.4199 26.7495 11.6417 26.7139 11.8582L25.8678 16.0889C25.8174 16.3024 25.686 16.488 25.5014 16.6065C25.3169 16.7251 25.0934 16.7673 24.8783 16.7242C24.6632 16.6812 24.4732 16.5563 24.3484 16.3759C24.2236 16.1955 24.1737 15.9737 24.2093 15.7572L25.0555 11.5265ZM13.1755 11.5265C13.1251 11.313 12.9937 11.1274 12.8091 11.0088C12.6245 10.8903 12.4011 10.8481 12.186 10.8911C11.9709 10.9342 11.7809 11.059 11.6561 11.2395C11.5313 11.4199 11.4814 11.6417 11.517 11.8582L12.3632 16.0889C12.4136 16.3024 12.5449 16.488 12.7295 16.6065C12.9141 16.7251 13.1375 16.7673 13.3526 16.7242C13.5678 16.6812 13.7577 16.5563 13.8826 16.3759C14.0074 16.1955 14.0572 15.9737 14.0216 15.7572L13.1755 11.5265ZM6.30302 13.7958C6.18767 13.6033 6.00056 13.4645 5.78284 13.4099C5.56513 13.3553 5.33465 13.3894 5.1421 13.5048C4.94955 13.6201 4.81071 13.8072 4.75612 14.0249C4.70154 14.2427 4.73567 14.4731 4.85102 14.6657L7.38948 18.8965C7.50483 19.089 7.69195 19.2278 7.90966 19.2824C8.12738 19.337 8.35786 19.3029 8.55041 19.1875C8.74295 19.0722 8.88179 18.8851 8.93638 18.6674C8.99097 18.4496 8.95683 18.2192 8.84148 18.0266L6.30302 13.7958ZM31.9279 13.7958C31.9851 13.7005 32.0604 13.6173 32.1496 13.5511C32.2389 13.4849 32.3403 13.4369 32.4481 13.4099C32.5559 13.3828 32.668 13.3773 32.7779 13.3936C32.8879 13.4099 32.9935 13.4477 33.0889 13.5048C33.1842 13.5619 33.2674 13.6372 33.3336 13.7265C33.3998 13.8157 33.4478 13.9171 33.4748 14.0249C33.5019 14.1327 33.5074 14.2448 33.4911 14.3548C33.4748 14.4647 33.4371 14.5704 33.3799 14.6657L30.8415 18.8965C30.7844 18.9918 30.709 19.075 30.6198 19.1412C30.5305 19.2074 30.4291 19.2554 30.3213 19.2824C30.2135 19.3095 30.1014 19.315 29.9915 19.2987C29.8816 19.2824 29.7759 19.2447 29.6806 19.1875C29.5852 19.1304 29.5021 19.0551 29.4358 18.9658C29.3696 18.8766 29.3216 18.7752 29.2946 18.6674C29.2676 18.5596 29.262 18.4475 29.2783 18.3375C29.2946 18.2276 29.3324 18.122 29.3895 18.0266L31.9279 13.7958ZM24.1924 22.6923C24.1924 24.0388 23.6575 25.3301 22.7054 26.2822C21.7533 27.2343 20.462 27.7692 19.1155 27.7692C17.769 27.7692 16.4777 27.2343 15.5256 26.2822C14.5735 25.3301 14.0386 24.0388 14.0386 22.6923C14.0386 21.3458 14.5735 20.0545 15.5256 19.1024C16.4777 18.1503 17.769 17.6154 19.1155 17.6154C20.462 17.6154 21.7533 18.1503 22.7054 19.1024C23.6575 20.0545 24.1924 21.3458 24.1924 22.6923Z" fill="black"/>
</svg>
