<svg width="123" height="123" viewBox="0 0 123 123" fill="none" xmlns="http://www.w3.org/2000/svg">
<path d="M72.1625 75.7219C73.3561 78.1384 75.2066 80.1694 77.5018 81.5822C79.797 82.9949 82.4439 83.7321 85.139 83.7092C90.5894 83.7092 94.0719 80.984 94.0719 77.221C94.0719 72.7122 90.4933 71.1133 84.4971 68.488L81.2068 67.0773C71.7166 63.0337 65.409 57.9676 65.409 47.2589C65.409 37.392 72.9274 29.8852 84.6739 29.8852C88.4862 29.6096 92.2952 30.4633 95.625 32.3398C98.9549 34.2164 101.658 37.0324 103.397 40.4363L93.1532 47.0129C92.4811 45.3268 91.3126 43.8848 89.8025 42.8778C88.2923 41.8708 86.5118 41.3464 84.697 41.3741C83.9059 41.2951 83.107 41.3817 82.3511 41.6283C81.5953 41.875 80.8991 42.2763 80.3069 42.8067C79.7146 43.3371 79.2393 43.985 78.9112 44.7092C78.583 45.4334 78.4092 46.2179 78.4009 47.0129C78.4009 50.9605 80.8455 52.5556 86.4728 55.0002L89.763 56.4071C100.941 61.2002 107.248 66.0856 107.248 77.0711C107.248 88.9137 97.9464 95.4019 85.4503 95.4019C80.5833 95.7091 75.7312 94.6026 71.4785 92.2157C67.2258 89.8289 63.7538 86.2634 61.4807 81.9488L72.1625 75.7219ZM25.6993 76.875C27.7672 80.542 29.6468 83.64 34.1555 83.64C38.4759 83.64 41.205 81.9488 41.205 75.376V30.6539H54.3583V75.5605C54.3583 89.1789 46.371 95.3788 34.7167 95.3788C30.5998 95.6028 26.5117 94.5747 22.9905 92.4298C19.4693 90.285 16.6803 87.1241 14.9906 83.3633L25.6993 76.875Z" fill="#F5DE19"/>
</svg>
