<svg width="16" height="16" viewBox="0 0 16 16" fill="none" xmlns="http://www.w3.org/2000/svg">
<path d="M14.0938 11.6875C13.5976 11.1875 12.3957 10.4578 11.8126 10.1638C11.0532 9.78125 10.9907 9.75 10.3938 10.1934C9.99568 10.4894 9.73099 10.7538 9.26506 10.6544C8.79912 10.555 7.78662 9.99469 6.90006 9.11094C6.01349 8.22719 5.42068 7.18531 5.32099 6.72094C5.22131 6.25656 5.49006 5.995 5.78318 5.59594C6.19631 5.03344 6.16506 4.93969 5.81193 4.18031C5.53662 3.58969 4.78568 2.39906 4.28381 1.90531C3.74693 1.375 3.74693 1.46875 3.40099 1.6125C3.11935 1.73097 2.84916 1.87501 2.59381 2.04281C2.09381 2.375 1.81631 2.65094 1.62224 3.06563C1.42818 3.48031 1.34099 4.4525 2.34318 6.27313C3.34537 8.09375 4.04849 9.02469 5.50381 10.4759C6.95912 11.9272 8.07818 12.7075 9.71412 13.625C11.7379 14.7584 12.5141 14.5375 12.9301 14.3438C13.346 14.15 13.6232 13.875 13.956 13.375C14.1242 13.1201 14.2686 12.8502 14.3872 12.5688C14.5313 12.2241 14.6251 12.2241 14.0938 11.6875Z" stroke="black" stroke-miterlimit="10"/>
</svg>
