<svg width="16" height="16" viewBox="0 0 16 16" fill="none" xmlns="http://www.w3.org/2000/svg">
<path d="M2.15576 11.9576L7.51045 15.0491C7.66255 15.1366 7.83496 15.1827 8.01045 15.1827C8.18594 15.1827 8.35835 15.1366 8.51045 15.0491L13.8652 11.9575C14.017 11.8696 14.1431 11.7433 14.2309 11.5913C14.3186 11.4393 14.3649 11.267 14.3652 11.0915V4.90849C14.3649 4.73301 14.3186 4.56067 14.2309 4.4087C14.1431 4.25673 14.017 4.13044 13.8652 4.04246L8.51048 0.950924C8.35837 0.86343 8.18596 0.817383 8.01048 0.817383C7.835 0.817383 7.66259 0.86343 7.51048 0.950924L2.15576 4.04246C2.00393 4.13044 1.87785 4.25673 1.79011 4.4087C1.70237 4.56067 1.65604 4.73301 1.65576 4.90849V11.0915C1.65604 11.267 1.70237 11.4394 1.79011 11.5913C1.87785 11.7433 2.00393 11.8696 2.15576 11.9576ZM8.51045 2.10564L13.3652 4.90849V10.4515L8.51045 7.70758V2.10564ZM8.00886 8.57274L12.9199 11.3486L8.01057 14.183L3.09939 11.3477L8.00886 8.57274ZM2.65576 4.90849L7.51045 2.10564V7.70564L2.65576 10.4497V4.90849Z" fill="black"/>
</svg>
