<svg width="63" height="63" viewBox="0 0 63 63" fill="none" xmlns="http://www.w3.org/2000/svg">
<g clip-path="url(#clip0_101_109)">
<path d="M22.3945 63.4922C28.2516 63.4922 32.9766 58.7672 32.9766 52.9102V42.3281H22.3945C16.5375 42.3281 11.8125 47.0531 11.8125 52.9102C11.8125 58.7672 16.5375 63.4922 22.3945 63.4922Z" fill="#0ACF83"/>
<path d="M11.8125 31.7461C11.8125 25.8891 16.5375 21.1641 22.3945 21.1641H32.9766V42.3281H22.3945C16.5375 42.3281 11.8125 37.6031 11.8125 31.7461Z" fill="#A259FF"/>
<path d="M11.8125 10.582C11.8125 4.725 16.5375 0 22.3945 0H32.9766V21.1641H22.3945C16.5375 21.1641 11.8125 16.4391 11.8125 10.582Z" fill="#F24E1E"/>
<path d="M32.9766 0H43.5586C49.4156 0 54.1406 4.725 54.1406 10.582C54.1406 16.4391 49.4156 21.1641 43.5586 21.1641H32.9766V0Z" fill="#FF7262"/>
<path d="M54.1406 31.7461C54.1406 37.6031 49.4156 42.3281 43.5586 42.3281C37.7016 42.3281 32.9766 37.6031 32.9766 31.7461C32.9766 25.8891 37.7016 21.1641 43.5586 21.1641C49.4156 21.1641 54.1406 25.8891 54.1406 31.7461Z" fill="#1ABCFE"/>
</g>
<defs>
<clipPath id="clip0_101_109">
<rect width="63" height="63" fill="white"/>
</clipPath>
</defs>
</svg>
