<svg width="24" height="24" viewBox="0 0 24 24" fill="none" xmlns="http://www.w3.org/2000/svg">
<g clip-path="url(#clip0_226_105)">
<path d="M4.25006 0.300049H19.7499C22.1001 0.300049 24 2.19999 24 4.55011V19.45C24 21.8001 22.1001 23.7001 19.7499 23.7001H4.25006C1.89994 23.7001 0 21.8001 0 19.45V4.55011C0 2.19999 1.89994 0.300049 4.25006 0.300049Z" fill="#001E36"/>
<path d="M8.59997 6.24988C8.29997 6.24988 7.99996 6.24988 7.69003 6.26C7.3799 6.26994 7.08984 6.26994 6.81984 6.28007C6.54984 6.29 6.2999 6.29 6.0599 6.29994C5.82984 6.30988 5.6699 6.30988 5.49984 6.30988C5.4299 6.30988 5.3999 6.34982 5.3999 6.41994V16.7099C5.3999 16.7999 5.43984 16.8401 5.5199 16.8401H7.45996C7.5299 16.8299 7.57997 16.7699 7.56984 16.7V13.49C7.75978 13.49 7.89984 13.49 7.99996 13.4999C8.0999 13.5099 8.25984 13.5099 8.49984 13.5099C9.31997 13.5099 10.07 13.4199 10.7498 13.1699C11.3999 12.9299 11.96 12.5099 12.3599 11.9499C12.7599 11.3899 12.9599 10.6799 12.9599 9.81988C12.9599 9.36988 12.88 8.93994 12.73 8.51994C12.5711 8.09205 12.3221 7.70328 11.9999 7.37994C11.6196 7.0105 11.1619 6.73035 10.6598 6.55982C10.0998 6.34982 9.4199 6.24988 8.59997 6.24988ZM8.82309 8.21957C9.17934 8.22632 9.52622 8.28856 9.84984 8.41981C10.1399 8.52988 10.3799 8.72994 10.55 8.98982C10.7095 9.25877 10.7892 9.56751 10.78 9.88007C10.78 10.3199 10.6799 10.6601 10.4699 10.91C10.2498 11.1599 9.96984 11.3501 9.64996 11.4401C9.27984 11.5601 8.88984 11.6199 8.49984 11.6199H7.96978C7.84978 11.6199 7.72003 11.6099 7.57996 11.6V8.24C7.6499 8.22988 7.78996 8.21994 7.99003 8.23007C8.17996 8.21994 8.40984 8.21994 8.6699 8.21994C8.72115 8.21869 8.77221 8.21857 8.82309 8.21957ZM17.21 8.73013C16.4999 8.73013 15.9098 8.84 15.44 9.08C15.01 9.28006 14.6399 9.59994 14.39 9.99988C14.17 10.37 14.0498 10.7799 14.0498 11.21C14.0413 11.5638 14.1203 11.9142 14.2799 12.23C14.4669 12.5663 14.7266 12.8567 15.04 13.0799C15.4799 13.3808 15.9573 13.6229 16.46 13.7999C16.9499 13.9899 17.2799 14.1399 17.44 14.2698C17.6 14.3999 17.68 14.5299 17.68 14.6699C17.68 14.8499 17.57 15.02 17.41 15.0899C17.23 15.1799 16.96 15.23 16.58 15.23C16.18 15.23 15.7799 15.1799 15.3998 15.08C14.9634 14.9825 14.545 14.8172 14.1599 14.5901C14.1299 14.57 14.0999 14.5601 14.0699 14.5801C14.0399 14.6 14.03 14.6399 14.03 14.6699V16.4099C14.02 16.49 14.0699 16.5599 14.14 16.5999C14.4643 16.7514 14.8073 16.859 15.16 16.9199C15.61 17.0099 16.0598 17.0499 16.5198 17.0499C17.2398 17.0499 17.84 16.94 18.3299 16.73C18.7799 16.55 19.1699 16.2401 19.4498 15.8399C19.712 15.4466 19.8481 14.9827 19.8398 14.51C19.8497 14.1529 19.7707 13.799 19.61 13.4801C19.4198 13.1399 19.1498 12.86 18.8198 12.65C18.3371 12.3468 17.8202 12.1018 17.2799 11.9199C17.0386 11.82 16.8017 11.7099 16.5698 11.5899C16.4399 11.5199 16.3199 11.4299 16.2299 11.3199C16.1699 11.2398 16.13 11.15 16.13 11.06C16.13 10.97 16.16 10.8701 16.2098 10.79C16.28 10.6901 16.3898 10.6199 16.5198 10.5899C16.7099 10.5401 16.9199 10.5099 17.1198 10.5198C17.4998 10.5198 17.8698 10.5699 18.2399 10.6499C18.58 10.7199 18.8999 10.8299 19.1999 10.9901C19.2398 11.0099 19.2899 11.0099 19.3799 10.9901C19.3955 10.9785 19.4082 10.9634 19.4169 10.946C19.4256 10.9286 19.4301 10.9094 19.43 10.8899V9.26C19.43 9.21988 19.4198 9.17994 19.4099 9.14C19.3898 9.10007 19.3499 9.05994 19.31 9.05C19.0342 8.93727 18.7452 8.85997 18.4499 8.81994C18.0393 8.76015 17.6249 8.73026 17.21 8.73013Z" fill="#31A8FF"/>
</g>
<defs>
<clipPath id="clip0_226_105">
<rect width="24" height="24" fill="white"/>
</clipPath>
</defs>
</svg>
