<svg width="24" height="24" viewBox="0 0 24 24" fill="none" xmlns="http://www.w3.org/2000/svg">
<g clip-path="url(#clip0_223_130)">
<path d="M23.3858 23.4944H18.5102C18.1654 23.4944 17.8866 23.2157 17.8866 22.8708V15.0189C17.8866 12.326 16.4977 12.326 16.0394 12.326C14.8063 12.326 14.2819 13.2992 14.1118 13.7197C14.0315 13.9087 13.9937 14.2299 13.9937 14.6788V22.8756C13.9937 23.2205 13.715 23.4992 13.3701 23.4992H8.48979C8.32444 23.4992 8.1638 23.4331 8.0457 23.315C7.92759 23.1969 7.86145 23.0362 7.86616 22.8709C7.86616 22.7386 7.93231 9.57167 7.86616 8.22521C7.85672 8.05513 7.91813 7.88977 8.03625 7.76694C8.15438 7.6441 8.31499 7.57323 8.48977 7.57323H13.3701C13.715 7.57323 13.9937 7.85195 13.9937 8.19683V8.56534C14.8158 7.83305 16.0016 7.22832 17.7685 7.22832C21.6756 7.22832 24.0094 9.93066 24.0094 14.4567V22.8708C24.0094 23.2157 23.7307 23.4944 23.3858 23.4944ZM19.1339 22.2472L22.767 22.2471V14.4566C22.767 10.6534 20.9481 8.4755 17.7732 8.4755C15.652 8.4755 14.6221 9.53377 13.9748 10.5023C13.8992 10.7574 13.6583 10.9464 13.3748 10.9464H13.3418C13.115 10.9464 12.9071 10.8235 12.7985 10.6251C12.7134 10.4692 12.6945 10.2897 12.7512 10.1243V8.81569H9.12759C9.16066 11.4189 9.12759 19.8425 9.11815 22.2425H12.7465V14.674C12.7465 14.0456 12.8126 13.5921 12.9544 13.2472C13.5024 11.8913 14.6551 11.074 16.0347 11.074C18 11.074 19.1291 12.5102 19.1291 15.0141V22.2472H19.1339L19.1339 22.2472ZM5.79216 23.4943H0.911836C0.566953 23.4943 0.288234 23.2156 0.288234 22.8707V8.19678C0.288234 7.8519 0.566953 7.57316 0.911836 7.57316H5.79216C6.13704 7.57316 6.41576 7.8519 6.41576 8.19676V22.8708C6.41576 23.2156 6.13704 23.4944 5.79216 23.4944V23.4943ZM1.53548 22.2472H5.16853V8.82036H1.53551L1.53548 22.2472ZM3.35435 6.81723L3.32126 6.8172C1.39842 6.8172 0 5.48492 0 3.65185C0 1.82352 1.42205 0.491211 3.3874 0.491211C5.31968 0.491211 6.69923 1.78569 6.73704 3.63767C6.73704 5.48492 5.31499 6.81723 3.35435 6.81723ZM3.3874 1.7432C2.10708 1.7432 1.24725 2.51328 1.24725 3.65661C1.24725 4.781 2.09766 5.56998 3.32128 5.56998H3.35433C4.62994 5.56998 5.48977 4.79989 5.48977 3.65659C5.46614 2.4991 4.63938 1.7432 3.3874 1.7432Z" fill="white"/>
</g>
<defs>
<clipPath id="clip0_223_130">
<rect width="24" height="24" fill="white"/>
</clipPath>
</defs>
</svg>
