<svg width="87" height="87" viewBox="0 0 87 87" fill="none" xmlns="http://www.w3.org/2000/svg">
<path d="M43.5 7.25C38.7396 7.25 34.0258 8.18763 29.6277 10.0094C25.2297 11.8311 21.2335 14.5013 17.8674 17.8674C11.0692 24.6656 7.25 33.8859 7.25 43.5C7.25 59.5225 17.6538 73.1163 32.045 77.9375C33.8575 78.2275 34.4375 77.1038 34.4375 76.125V69.9988C24.3962 72.1738 22.2575 65.1413 22.2575 65.1413C20.59 60.9363 18.2338 59.8125 18.2338 59.8125C14.935 57.565 18.4875 57.6375 18.4875 57.6375C22.1125 57.8913 24.0338 61.3713 24.0338 61.3713C27.1875 66.8813 32.5163 65.25 34.5825 64.38C34.9088 62.0238 35.8512 60.4288 36.8663 59.5225C28.8188 58.6163 20.3725 55.4988 20.3725 41.6875C20.3725 37.6638 21.75 34.4375 24.1063 31.8638C23.7437 30.9575 22.475 27.1875 24.4688 22.2938C24.4688 22.2938 27.5138 21.315 34.4375 25.9913C37.3013 25.1938 40.4188 24.795 43.5 24.795C46.5812 24.795 49.6987 25.1938 52.5625 25.9913C59.4862 21.315 62.5312 22.2938 62.5312 22.2938C64.525 27.1875 63.2563 30.9575 62.8938 31.8638C65.25 34.4375 66.6275 37.6638 66.6275 41.6875C66.6275 55.535 58.145 58.58 50.0613 59.4863C51.3663 60.61 52.5625 62.8213 52.5625 66.1925V76.125C52.5625 77.1038 53.1425 78.2638 54.9912 77.9375C69.3825 73.08 79.75 59.5225 79.75 43.5C79.75 38.7396 78.8124 34.0258 76.9906 29.6277C75.1689 25.2297 72.4987 21.2335 69.1326 17.8674C65.7665 14.5013 61.7703 11.8311 57.3723 10.0094C52.9742 8.18763 48.2604 7.25 43.5 7.25Z" fill="black"/>
</svg>
