<svg width="24" height="24" viewBox="0 0 24 24" fill="none" xmlns="http://www.w3.org/2000/svg">
<g clip-path="url(#clip0_30_190)">
<path d="M14.486 3.1429C14.7412 3.21469 14.9575 3.3849 15.0873 3.61612C15.2171 3.84734 15.2497 4.12063 15.178 4.3759L10.748 20.1639C10.7125 20.2904 10.6525 20.4086 10.5714 20.5119C10.4902 20.6151 10.3895 20.7014 10.275 20.7658C10.1605 20.8301 10.0345 20.8713 9.90408 20.8869C9.77367 20.9026 9.64147 20.8924 9.515 20.8569C9.38854 20.8214 9.2703 20.7614 9.16703 20.6803C9.06376 20.5991 8.97749 20.4984 8.91314 20.3839C8.84879 20.2694 8.80762 20.1434 8.79198 20.013C8.77635 19.8826 8.78655 19.7504 8.822 19.6239L13.252 3.8359C13.2874 3.70931 13.3475 3.59096 13.4287 3.4876C13.5099 3.38425 13.6107 3.29792 13.7253 3.23355C13.8399 3.16919 13.9661 3.12805 14.0966 3.1125C14.2272 3.09694 14.3595 3.10727 14.486 3.1429ZM7.207 7.0499C7.39447 7.23742 7.49979 7.49173 7.49979 7.7569C7.49979 8.02206 7.39447 8.27637 7.207 8.46389L3.672 11.9999L7.207 15.5349C7.29991 15.6277 7.37363 15.738 7.42394 15.8593C7.47424 15.9806 7.50016 16.1107 7.50021 16.242C7.50025 16.3734 7.47443 16.5035 7.42421 16.6248C7.37398 16.7462 7.30035 16.8565 7.2075 16.9494C7.11466 17.0423 7.00442 17.116 6.88309 17.1663C6.76176 17.2166 6.63171 17.2426 6.50036 17.2426C6.36901 17.2426 6.23894 17.2168 6.11757 17.1666C5.9962 17.1164 5.88591 17.0427 5.793 16.9499L1.55 12.7069C1.36253 12.5194 1.25722 12.2651 1.25722 11.9999C1.25722 11.7347 1.36253 11.4804 1.55 11.2929L5.793 7.0499C5.98053 6.86242 6.23484 6.75711 6.5 6.75711C6.76517 6.75711 7.01948 6.86242 7.207 7.0499ZM16.793 8.46389C16.6975 8.37165 16.6213 8.2613 16.5689 8.1393C16.5165 8.0173 16.4889 7.88608 16.4878 7.7533C16.4866 7.62052 16.5119 7.48884 16.5622 7.36594C16.6125 7.24304 16.6867 7.13139 16.7806 7.0375C16.8745 6.94361 16.9862 6.86935 17.1091 6.81907C17.2319 6.76879 17.3636 6.74349 17.4964 6.74464C17.6292 6.7458 17.7604 6.77338 17.8824 6.82579C18.0044 6.8782 18.1148 6.95439 18.207 7.0499L22.45 11.2929C22.6375 11.4804 22.7428 11.7347 22.7428 11.9999C22.7428 12.2651 22.6375 12.5194 22.45 12.7069L18.207 16.9499C18.0194 17.1374 17.7649 17.2427 17.4997 17.2426C17.2344 17.2425 16.98 17.137 16.7925 16.9494C16.605 16.7618 16.4997 16.5073 16.4998 16.242C16.4999 15.9768 16.6054 15.7224 16.793 15.5349L20.328 11.9999L16.793 8.46389Z" fill="black"/>
</g>
<defs>
<clipPath id="clip0_30_190">
<rect width="24" height="24" fill="white"/>
</clipPath>
</defs>
</svg>
