<svg width="66" height="66" viewBox="0 0 66 66" fill="none" xmlns="http://www.w3.org/2000/svg">
<g clip-path="url(#clip0_106_99)">
<path d="M32.9355 0.257812C41.8301 0.257812 42.9258 0.322266 46.4062 0.451172C49.8223 0.580078 52.207 1.16016 54.334 1.99805C56.5254 2.83594 58.3301 3.93164 60.1348 5.73633C61.9395 7.54102 63.0352 9.3457 63.873 11.5371C64.7109 13.6641 65.291 16.0488 65.4199 19.4648C65.5488 22.9453 65.6133 24.041 65.6133 32.9355C65.6133 41.8301 65.5488 42.9258 65.4199 46.4062C65.291 49.8223 64.7109 52.207 63.873 54.334C63.0352 56.5254 61.9395 58.3301 60.1348 60.1348C58.3301 61.9395 56.5254 63.0352 54.334 63.873C52.207 64.7109 49.8223 65.291 46.4062 65.4199C42.9258 65.5488 41.8301 65.6133 32.9355 65.6133C24.041 65.6133 22.9453 65.5488 19.4648 65.4199C16.0488 65.291 13.6641 64.7109 11.5371 63.873C9.3457 63.0352 7.54102 61.9395 5.73633 60.1348C3.93164 58.3301 2.83594 56.5254 1.99805 54.334C1.16016 52.207 0.580078 49.8223 0.451172 46.4062C0.322266 42.9258 0.257812 41.8301 0.257812 32.9355C0.257812 24.041 0.322266 22.9453 0.451172 19.4648C0.580078 16.0488 1.16016 13.6641 1.99805 11.5371C2.83594 9.3457 3.93164 7.54102 5.73633 5.73633C7.54102 3.93164 9.3457 2.83594 11.5371 1.99805C13.6641 1.16016 16.0488 0.580078 19.4648 0.451172C22.9453 0.322266 24.041 0.257812 32.9355 0.257812ZM32.9355 4.51172C23.6543 4.51172 22.5586 4.57617 18.9492 4.70508C15.5977 4.83398 13.7285 5.47852 12.5039 5.92969C9.3457 7.21875 7.21875 9.3457 5.92969 12.5039C5.47852 13.7285 4.83398 15.5977 4.70508 18.9492C4.57617 22.5586 4.51172 23.6543 4.51172 32.9355C4.51172 42.2168 4.57617 43.3125 4.70508 46.9219C4.83398 50.2734 5.47852 52.1426 5.92969 53.3672C7.21875 56.5254 9.3457 58.6523 12.5039 59.9414C13.7285 60.3926 15.5977 61.0371 18.9492 61.166C22.5586 61.2949 23.6543 61.3594 32.9355 61.3594C42.2168 61.3594 43.3125 61.2949 46.9219 61.166C50.2734 61.0371 52.1426 60.3926 53.3672 59.9414C56.5254 58.6523 58.6523 56.5254 59.9414 53.3672C60.3926 52.1426 61.0371 50.2734 61.166 46.9219C61.2949 43.3125 61.3594 42.2168 61.3594 32.9355C61.3594 23.6543 61.2949 22.5586 61.166 18.9492C61.0371 15.5977 60.3926 13.7285 59.9414 12.5039C58.6523 9.3457 56.5254 7.21875 53.3672 5.92969C52.1426 5.47852 50.2734 4.83398 46.9219 4.70508C43.3125 4.57617 42.2168 4.51172 32.9355 4.51172ZM32.9355 46.0195C40.1543 46.0195 46.0195 40.1543 46.0195 32.9355C46.0195 25.7168 40.1543 19.8516 32.9355 19.8516C25.7168 19.8516 19.8516 25.7168 19.8516 32.9355C19.8516 40.1543 25.7168 46.0195 32.9355 46.0195ZM32.9355 16.1777C42.2168 16.1777 49.6934 23.6543 49.6934 32.9355C49.6934 42.2168 42.2168 49.6934 32.9355 49.6934C23.6543 49.6934 16.1777 42.2168 16.1777 32.9355C16.1777 23.6543 23.6543 16.1777 32.9355 16.1777ZM54.334 15.5332C54.334 17.7246 52.5293 19.4004 50.3379 19.4004C48.1465 19.4004 46.4707 17.7246 46.4707 15.5332C46.4707 13.3418 48.1465 11.5371 50.3379 11.5371C52.5293 11.5371 54.334 13.3418 54.334 15.5332Z" fill="black"/>
</g>
<defs>
<clipPath id="clip0_106_99">
<rect width="66" height="66" fill="white"/>
</clipPath>
</defs>
</svg>
