<svg width="24" height="24" viewBox="0 0 24 24" fill="none" xmlns="http://www.w3.org/2000/svg">
<path d="M15.7289 3.884C17.1629 2.444 19.2609 2.414 20.4219 3.58C21.5859 4.748 21.5549 6.86 20.1189 8.3L17.6959 10.733C17.5595 10.8746 17.4842 11.0642 17.4862 11.2609C17.4881 11.4575 17.5673 11.6455 17.7065 11.7844C17.8458 11.9232 18.034 12.0019 18.2307 12.0033C18.4273 12.0047 18.6167 11.9288 18.7579 11.792L21.1819 9.359C23.0929 7.44 23.3329 4.377 21.4849 2.521C19.6349 0.664 16.5779 0.906 14.6649 2.825L9.81895 7.692C7.90795 9.611 7.66795 12.674 9.51595 14.529C9.58497 14.6008 9.66759 14.6581 9.759 14.6976C9.8504 14.7371 9.94876 14.758 10.0483 14.7591C10.1479 14.7602 10.2467 14.7415 10.3389 14.704C10.4312 14.6665 10.5151 14.611 10.5856 14.5407C10.6562 14.4705 10.7121 14.3869 10.75 14.2948C10.788 14.2027 10.8072 14.104 10.8065 14.0045C10.8059 13.9049 10.7855 13.8064 10.7464 13.7148C10.7073 13.6233 10.6504 13.5404 10.5789 13.471C9.41495 12.303 9.44695 10.191 10.8819 8.751L15.7289 3.884Z" fill="black"/>
<path d="M14.485 9.47C14.3444 9.32904 14.1536 9.24969 13.9545 9.24941C13.7555 9.24912 13.5644 9.32794 13.4235 9.4685C13.2825 9.60906 13.2032 9.79987 13.2029 9.99894C13.2026 10.198 13.2814 10.389 13.422 10.53C14.586 11.698 14.555 13.809 13.119 15.25L8.27197 20.116C6.83697 21.556 4.73897 21.586 3.57797 20.42C2.41397 19.252 2.44597 17.14 3.88097 15.7L6.30497 13.267C6.37451 13.1972 6.42961 13.1144 6.46714 13.0233C6.50467 12.9322 6.5239 12.8346 6.52371 12.7361C6.52353 12.6376 6.50394 12.54 6.46606 12.4491C6.42819 12.3581 6.37277 12.2755 6.30297 12.206C6.23317 12.1365 6.15036 12.0814 6.05927 12.0438C5.96817 12.0063 5.87058 11.9871 5.77206 11.9873C5.67353 11.9874 5.57601 12.007 5.48506 12.0449C5.39411 12.0828 5.31151 12.1382 5.24197 12.208L2.81797 14.641C0.906971 16.561 0.666971 19.623 2.51497 21.479C4.36497 23.337 7.42197 23.094 9.33497 21.175L14.182 16.308C16.093 14.39 16.333 11.325 14.485 9.47Z" fill="black"/>
</svg>
