<svg width="24" height="20" viewBox="0 0 24 20" fill="none" xmlns="http://www.w3.org/2000/svg">
<path d="M16.1743 11.6393C16.6354 11.6393 17.0177 11.8634 17.3503 12.3065C17.6794 12.753 17.8543 13.2972 17.8543 13.9493C17.8543 14.598 17.6794 15.1473 17.3503 15.5887C17.0194 16.0352 16.6354 16.2559 16.1743 16.2559C15.6977 16.2559 15.2794 16.0352 14.9486 15.5887C14.6194 15.1473 14.4446 14.598 14.4446 13.9493C14.4446 13.2972 14.6194 12.753 14.9486 12.3065C15.2777 11.8617 15.696 11.6393 16.1743 11.6393ZM22.0714 5.64273C23.3503 7.00919 24 8.66713 24 10.6182C24 11.8785 23.852 13.0147 23.556 14.0268C23.2554 15.0332 22.8817 15.8527 22.4349 16.4851C21.9738 17.1257 21.4099 17.6885 20.7651 18.1514C20.203 18.5741 19.5898 18.9267 18.9394 19.2011C18.3247 19.4381 17.6863 19.6109 17.0349 19.7167C16.5001 19.8137 15.9605 19.8829 15.4183 19.9239L14.244 19.9475L13.3063 19.9728C12.4358 20.0091 11.5642 20.0091 10.6937 19.9728L9.756 19.9475L8.58172 19.9239C8.03952 19.8829 7.49991 19.8137 6.96515 19.7167C6.31311 19.6134 5.67448 19.4405 5.06058 19.2011C4.41084 18.9265 3.79819 18.574 3.23658 18.1514C2.59125 17.6887 2.02675 17.1259 1.56515 16.4851C1.11715 15.8527 0.743435 15.0332 0.444006 14.0268C0.146863 13.0159 -0.00113629 11.8797 6.56816e-06 10.6182C6.56816e-06 8.66713 0.649721 7.0075 1.92858 5.64273C1.78801 5.57309 1.78343 4.88958 1.91486 3.59221C2.00433 2.35848 2.29069 1.14626 2.76343 0C4.36458 0.166805 6.34629 1.0598 8.71372 2.66383C9.51258 2.46332 10.6011 2.35549 12 2.35549C13.4606 2.35774 14.5566 2.46108 15.288 2.66551C16.3657 1.94887 17.3971 1.36814 18.3823 0.923325C19.3834 0.483566 20.1051 0.222407 20.5577 0.153326L21.2366 0.00168478C21.6983 1.09575 21.9817 2.29315 22.0869 3.59389C22.2171 4.89014 22.212 5.57309 22.0714 5.64273ZM12.0514 18.8187C14.9451 18.8187 17.1154 18.4783 18.6017 17.7959C20.0674 17.1152 20.8166 15.71 20.8166 13.5904C20.8166 12.3593 20.3469 11.3326 19.4074 10.5104C18.94 10.0745 18.3487 9.78889 17.712 9.69155C17.0686 9.58933 16.0857 9.58933 14.7634 9.69155C13.4434 9.79377 12.5394 9.84431 12.0514 9.84319C11.3914 9.84319 10.68 9.81286 9.79029 9.74378C8.89886 9.67638 8.2 9.63258 7.69372 9.61236C7.14056 9.60236 6.58844 9.66353 6.05143 9.79433C5.51002 9.90705 5.00677 10.1535 4.58915 10.5104C3.69601 11.3006 3.23486 12.325 3.23486 13.5904C3.23486 15.7111 3.96629 17.113 5.42915 17.7959C6.88629 18.4783 9.05143 18.8187 11.9469 18.8187H12.0514ZM7.87886 11.6393C8.33829 11.6393 8.72229 11.8634 9.05315 12.3065C9.38229 12.753 9.55715 13.2972 9.55715 13.9493C9.55715 14.598 9.38229 15.1473 9.05315 15.5887C8.724 16.0352 8.33829 16.2559 7.87886 16.2559C7.40058 16.2559 6.984 16.0352 6.65143 15.5887C6.32229 15.1473 6.14743 14.598 6.14743 13.9493C6.14743 13.2972 6.32229 12.753 6.65143 12.3065C6.98229 11.8617 7.39886 11.6393 7.87886 11.6393Z" fill="black"/>
</svg>
