<svg width="24" height="24" viewBox="0 0 24 24" fill="none" xmlns="http://www.w3.org/2000/svg">
<path fill-rule="evenodd" clip-rule="evenodd" d="M11.27 8.188C9.57 8.188 8.469 9.628 8.469 11.844C8.469 14.047 9.559 15.477 11.258 15.477C12.992 15.477 14.105 14.023 14.105 11.785C14.105 9.582 13.015 8.188 11.27 8.188ZM11.645 2C16.78 2 21.02 5.527 21.02 10.719C21.02 14.445 19.473 16.836 16.895 16.836C15.5 16.836 14.398 15.992 14.223 14.68H14.141C13.613 16.016 12.523 16.754 11.071 16.754C8.656 16.754 7.016 14.762 7.016 11.809C7.016 8.926 8.68 6.934 11.07 6.934C12.43 6.934 13.613 7.672 14.047 8.82H14.129V7.168H15.489V13.871C15.489 14.937 16.051 15.641 17.117 15.641C18.676 15.641 19.742 13.848 19.742 10.695C19.742 6.219 16.238 3.175 11.645 3.175C7.051 3.175 3.289 6.525 3.289 11.773C3.289 16.648 7.303 20.363 11.773 20.363C13.355 20.363 14.867 20.164 15.664 19.848V21.008C14.714 21.336 13.332 21.523 11.762 21.523C6.198 21.523 2 17.326 2 11.727C1.99117 10.4541 2.23402 9.19194 2.71459 8.01317C3.19516 6.8344 3.90396 5.76224 4.80027 4.85831C5.69657 3.95439 6.7627 3.23653 7.93735 2.746C9.11201 2.25547 10.372 2.00195 11.645 2Z" fill="black"/>
</svg>
